<svg width="32" height="32" viewBox="0 0 100 100" xmlns="http://www.w3.org/2000/svg">
  <rect width="100" height="100" rx="14" fill="#05060A"/>
  <g transform="translate(50,100) scale(17) translate(-6,-290)">
    <path style="" d="m 6.3814655,284.83093 a 0.65521418,0.65521418 0 0 0 -0.3018148,0.0876 0.05445484,0.05445484 0 0 0 -0.01784,0.0774 0.07270269,0.07270269 0 0 1 0.012331,0.0364 0.41232248,0.41232248 0 0 1 -0.1060706,0.0313 0.05445484,0.05445484 0 0 0 -0.03791,0.082 0.12220462,0.12220462 0 0 1 -0.03227,0.16245 3.0446702,3.0446702 0 0 0 -0.6318065,0.67945 1.660579,1.660579 0 0 0 -0.2551941,0.96437 129.04701,129.04701 0 0 1 0.1040243,0.91158 56.185852,56.185852 0 0 0 -1.0883591,0.1973 0.02632215,0.02632215 0 0 0 0.00971,0.0517 56.133381,56.133381 0 0 1 1.0842663,-0.19677 129.04701,129.04701 0 0 1 0.010232,0.0882 56.044757,56.044757 0 0 0 -1.0776025,0.19574 0.02637192,0.02637192 0 0 0 0.010232,0.0517 55.992286,55.992286 0 0 1 1.0729851,-0.1947 129.04701,129.04701 0 0 1 0.00761,0.0697 38.909547,38.909547 0 0 0 0.6133629,3.23488 472.7108,472.7108 0 0 0 0.4857791,2.28843 41.95546,41.95546 0 0 0 0.4898718,1.76375 10.025523,10.025523 0 0 0 0.3622616,1.00535 0.08267403,0.08267403 0 0 0 0.1593553,-0.0287 1.248195,1.248195 0 0 0 -0.013905,-0.24851 0.59061981,0.59061981 0 0 0 -0.038435,-0.13579 4.4773603,4.4773603 0 0 1 -0.1767757,-0.51037 26.810816,26.810816 0 0 0 -0.4514366,-1.75912 17.263264,17.263264 0 0 1 -0.2931045,-1.27285 33.906933,33.906933 0 0 0 1.1621599,2.11066 39.491354,39.491354 0 0 1 0.8106287,1.10525 1.0028246,1.0028246 0 0 0 0.2992699,0.22854 0.08267403,0.08267403 0 0 0 0.1091403,-0.11323 v 0 a 4.325282,4.325282 0 0 0 -0.2377736,-0.38585 17.614092,17.614092 0 0 0 -0.6528213,-0.95975 9.1901127,9.1901127 0 0 1 -0.7209553,-1.08938 9.6306468,9.6306468 0 0 1 -0.9638448,-2.18289 5.2970192,5.2970192 0 0 1 -0.00656,-0.89673 11.055692,11.055692 0 0 0 0.024137,-0.8711 3.6290454,3.6290454 0 0 1 0.2792521,-1.54749 12.862244,12.862244 0 0 0 2.2961428,-0.57597 0.02623565,0.02623565 0 0 0 -0.017316,-0.0492 12.809772,12.809772 0 0 1 -2.3453347,0.58212 0.22822845,0.22822845 0 0 0 -0.017315,-0.0871 12.721148,12.721148 0 0 0 2.3330302,-0.57852 0.02634011,0.02634011 0 0 0 -0.017316,-0.0497 12.668677,12.668677 0 0 1 -2.1198657,0.5447 20.945671,20.945671 0 0 0 0.3115482,-0.62514 0.88678989,0.88678989 0 0 0 0.039458,-0.57443 6.3279428,6.3279428 0 0 1 -0.092245,-0.7517 0.61091171,0.61091171 0 0 1 0.019939,-0.0876 h 0.3100003 a 0.05445484,0.05445484 0 0 0 0.037412,-0.0938 l -0.18037,-0.17012 a 0.61091171,0.61091171 0 0 1 0.010232,-0.009 0.13911248,0.13911248 0 0 0 0.0292,-0.17216 0.65521418,0.65521418 0 0 0 -0.5979889,-0.33358 z m 0.00498,0.0523 a 0.60274285,0.60274285 0 0 1 0.5503449,0.30693 0.08664118,0.08664118 0 0 1 -0.01784,0.1071 0.66338301,0.66338301 0 0 0 -0.211092,0.37149 1.6168999,1.6168999 0 0 1 -0.8188404,-0.28284 2.9921989,2.9921989 0 0 1 0.043026,-0.0348 0.17467593,0.17467593 0 0 0 0.045099,-0.23161 0.46479373,0.46479373 0 0 0 0.1193984,-0.0349 0.05445484,0.05445484 0 0 0 0.031771,-0.0528 0.12517393,0.12517393 0 0 0 -0.020988,-0.0625 h 0.00262 a 0.60274285,0.60274285 0 0 1 0.2772057,-0.0804 z m 0.5180751,0.49961 0.1844627,0.17473 H 6.7938372 a 0.61091171,0.61091171 0 0 1 0.1106882,-0.17473 z m -1.0714634,0.0461 a 1.5106125,1.5106125 0 0 1 0.1480739,0.76041 0.13911248,0.13911248 0 0 0 -0.0292,0.0344 0.24089705,0.24089705 0 0 0 -0.2803016,-0.14913 0.13911248,0.13911248 0 0 0 -0.081462,0.0579 1.7824756,1.7824756 0 0 0 -0.2797769,0.75992 67.797936,67.797936 0 0 1 0,0.78862 3.8484267,3.8484267 0 0 1 0.031771,1.11449 h -0.00262 a 0.0212023,0.0212023 0 0 1 -0.042029,0 38.857076,38.857076 0 0 1 -0.1050474,-0.67589 129.09948,129.09948 0 0 0 -0.1322014,-1.17239 1.6081077,1.6081077 0 0 1 0.2469823,-0.93105 2.9921989,2.9921989 0 0 1 0.5252374,-0.58825 z m 0.075323,0.0343 a 1.6693712,1.6693712 0 0 0 0.7947561,0.25826 6.3804141,6.3804141 0 0 0 0.092218,0.73943 0.83431857,0.83431857 0 0 1 0,0.0118 0.43075963,0.43075963 0 0 0 -0.1332246,0.17678 0.91850872,0.91850872 0 0 1 0.00262,0.004 h -0.00367 a 0.43075963,0.43075963 0 0 1 0.00262,-0.004 0.91850872,0.91850872 0 0 0 -0.5457275,-0.48628 0.13911248,0.13911248 0 0 0 -0.078891,-0.003 1.5630837,1.5630837 0 0 0 -0.1291318,-0.69792 z m -0.1829411,0.65744 a 0.18842581,0.18842581 0 0 1 0.1901034,0.21009 0.43303255,0.43303255 0 0 0 0.1634743,0.43504 0.0302028,0.0302028 0 0 1 -0.018365,0.0543 0.3782255,0.3782255 0 0 1 -0.1849874,-0.0523 0.05445484,0.05445484 0 0 0 -0.077369,0.0697 0.9668616,0.9668616 0 0 1 0.071204,0.23263 0.0302028,0.0302028 0 0 1 -0.03791,0.0343 0.44269645,0.44269645 0 0 1 -0.142958,-0.0728 0.05445484,0.05445484 0 0 0 -0.086079,0.0543 0.50599595,0.50599595 0 0 1 -0.00813,0.24339 0.08664118,0.08664118 0 0 1 -0.1024764,0.061 0.18059599,0.18059599 0 0 1 -0.1270854,-0.10914 67.850408,67.850408 0 0 0 0,-0.38585 1.7300043,1.7300043 0 0 1 0.2715913,-0.73378 0.08664118,0.08664118 0 0 1 0.049192,-0.0364 0.18842581,0.18842581 0 0 1 0.039957,-0.005 z m 0.3407484,0.0876 a 0.08664118,0.08664118 0 0 1 0.034342,0.005 0.86603748,0.86603748 0 0 1 0.5144546,0.45758 0.05445484,0.05445484 0 0 0 0.098908,-0.003 0.37828838,0.37828838 0 0 1 0.09736,-0.13887 0.83431857,0.83431857 0 0 1 -0.052261,0.47195 20.8932,20.8932 0 0 1 -0.3279455,0.65692 12.668677,12.668677 0 0 1 -0.158332,0.0247 0.22822844,0.22822844 0 0 0 -0.3182121,-0.0487 h 0.00761 a 0.07138637,0.07138637 0 0 0 -0.018365,0.0948 56.185852,56.185852 0 0 0 -0.176251,0.0277 0.22822844,0.22822844 0 0 0 -0.3069569,-0.0354 0.07138637,0.07138637 0 0 0 -0.022038,0.0891 56.185852,56.185852 0 0 0 -0.046122,0.008 3.900898,3.900898 0 0 0 -0.022038,-0.14243 67.850408,67.850408 0 0 0 0,-0.30029 0.2330673,0.2330673 0 0 0 0.1153056,0.0651 0.13911248,0.13911248 0 0 0 0.1649959,-0.0974 0.5584672,0.5584672 0 0 0 0.00918,-0.2685 0.49516777,0.49516777 0 0 0 0.1593552,0.0815 0.08267403,0.08267403 0 0 0 0.1055722,-0.0933 1.0193329,1.0193329 0 0 0 -0.075847,-0.24543 0.43069674,0.43069674 0 0 0 0.2111182,0.0589 0.08267403,0.08267403 0 0 0 0.05074,-0.1486 0.38056125,0.38056125 0 0 1 -0.1163288,-0.46476 0.08664118,0.08664118 0 0 1 0.071728,-0.0502 z m 0.01784,1.43577 a 0.17575721,0.17575721 0 0 1 0.1808947,0.17578 v 0.0487 a 0.02355192,0.02355192 0 0 1 -0.046647,0.004 0.28280129,0.28280129 0 0 0 -0.053285,-0.11835 0.03752332,0.03752332 0 0 0 -0.067635,0.0226 v 0.12145 a 0.03055994,0.03055994 0 0 1 -0.060972,0 v -0.0825 a 0.13911248,0.13911248 0 0 0 -0.043577,-0.10145 0.54261647,0.54261647 0 0 0 -0.00813,-0.008 0.01891513,0.01891513 0 0 1 0,-0.0292 v 0 a 0.17575721,0.17575721 0 0 1 0.098384,-0.0333 z m -0.5026748,0.0866 a 0.17575721,0.17575721 0 0 1 0.1813932,0.17627 v 0.0487 a 0.02370544,0.02370544 0 0 1 -0.047146,0.004 0.28280129,0.28280129 0 0 0 -0.052786,-0.11838 0.03752332,0.03752332 0 0 0 -0.067111,0.0226 v 0.12144 a 0.03055994,0.03055994 0 0 1 -0.060972,0 v -0.0825 a 0.13911248,0.13911248 0 0 0 -0.044076,-0.10148 0.54261647,0.54261647 0 0 0 -0.00866,-0.008 0.01891513,0.01891513 0 0 1 0,-0.0297 v 0 a 0.17575721,0.17575721 0 0 1 0.098384,-0.0338 z m 0.3935345,0.0466 a 0.08664118,0.08664118 0 0 1 0.00971,0.039 v 0.0492 a 56.044757,56.044757 0 0 0 -0.1701118,0.0266 0.22822844,0.22822844 0 0 0 -0.023087,-0.0861 56.133381,56.133381 0 0 1 0.1834396,-0.0287 z m 0.1773005,0.0543 a 0.23033005,0.23033005 0 0 1 0.016266,0.0512 0.07602323,0.07602323 0 0 0 0.1101634,0.0528 0.01049425,0.01049425 0 0 1 0.00918,0 0.01049425,0.01049425 0 0 1 0.00262,0 0.01049425,0.01049425 0 0 1 0.00262,0.003 0.01049425,0.01049425 0 0 1 0.00262,0.01 3.6982387,3.6982387 0 0 0 -0.097885,0.29412 0.80109796,0.80109796 0 0 0 -0.348934,0.49806 0.0302028,0.0302028 0 0 1 -0.058951,0 h -0.00262 a 1.4760556,1.4760556 0 0 0 -0.3771373,-0.70558 3.900898,3.900898 0 0 0 0,-0.0236 55.992286,55.992286 0 0 1 0.077395,-0.0129 0.08303117,0.08303117 0 0 0 0.1649959,-0.0128 v -0.0671 a 0.23033005,0.23033005 0 0 1 0.016004,0.0512 0.07602323,0.07602323 0 0 0 0.150645,-0.0144 v -0.0102 a 55.992286,55.992286 0 0 1 0.1716598,-0.0272 0.08303117,0.08303117 0 0 0 0.1634742,-0.0194 z m -0.6830448,0.0266 a 0.08664118,0.08664118 0 0 1 0.012855,0.0451 v 0.0425 a 56.044757,56.044757 0 0 0 -0.080465,0.0134 3.900898,3.900898 0 0 0 -0.010232,-0.0881 56.133381,56.133381 0 0 1 0.077894,-0.0129 z m -0.055357,0.26031 a 1.4235843,1.4235843 0 0 1 0.3207831,0.63283 0.08267403,0.08267403 0 0 0 0.1609032,0 0.74862666,0.74862666 0 0 1 0.2761825,-0.43042 3.6982387,3.6982387 0 0 0 -0.1198969,1.08941 11.003222,11.003222 0 0 1 -0.024137,0.86546 5.3494905,5.3494905 0 0 0 0.01784,1.02379 17.315736,17.315736 0 0 0 0.4775673,2.45038 26.758344,26.758344 0 0 1 0.4504134,1.75758 4.5298318,4.5298318 0 0 0 0.1788483,0.51805 0.53814857,0.53814857 0 0 1 0.035864,0.12402 1.1957236,1.1957236 0 0 1 0.012331,0.23774 0.0302028,0.0302028 0 0 1 -0.057404,0.0102 9.9730533,9.9730533 0 0 1 -0.3612385,-0.99974 41.902989,41.902989 0 0 1 -0.4893733,-1.76065 472.65833,472.65833 0 0 1 -0.4852543,-2.28793 38.857076,38.857076 0 0 1 -0.4955125,-2.4847 0.07367353,0.07367353 0 0 0 0.082511,-0.0646 3.900898,3.900898 0 0 0 0.019414,-0.68255 z m 0.7040595,3.33481 a 9.6831183,9.6831183 0 0 0 0.8864759,1.93386 9.2425845,9.2425845 0 0 0 0.7245496,1.094 17.561622,17.561622 0 0 1 0.6502502,0.9577 4.2728107,4.2728107 0 0 1 0.2362257,0.38173 0.0302028,0.0302028 0 0 1 -0.039458,0.0415 0.95035338,0.95035338 0 0 1 -0.2818232,-0.21469 39.543822,39.543822 0 0 0 -0.809107,-1.10169 33.854462,33.854462 0 0 1 -1.2395289,-2.26694 17.263264,17.263264 0 0 1 -0.1275839,-0.82548 z" fill="#fff" stroke="#fff" stroke-width=".0px"/>
    <path style="" d="m 6.6017235,285.31293 a 0.06212765,0.06212765 0 1 0 -0.1242553,0 0.06212765,0.06212765 0 1 0 0.1242553,0 z" fill="#ff0000" stroke="none"/>
  </g>
</svg>