<?xml version="1.0" encoding="UTF-8"?>
<svg id="Layer_1" data-name="Layer 1" xmlns="http://www.w3.org/2000/svg" viewBox="0 0 1664.55 440.04">
  <g id="_3" data-name="3">
    <g>
      <path d="M501.86,248c-2.76,2.85-6.03,5.06-9.43,6.82-3.42,1.75-6.97,3.07-10.58,4.11-1.83.5-3.71.91-5.68.98-1.95.07-4.05-.21-5.88-1.24-.91-.5-1.75-1.16-2.42-1.97-.67-.8-1.18-1.71-1.55-2.66-.72-1.9-.86-3.93-.58-5.86.25-1.93,1.03-3.81,2.05-5.39,1.03-1.59,2.29-2.98,3.64-4.19,2.72-2.43,5.68-4.29,8.75-6.02,6.15-3.26,12.44-5.75,18.62-8.1,12.4-4.57,24.47-8.4,36.05-11.87,11.58-3.46,22.67-6.56,33.21-9.41,42.18-11.31,75.45-18.85,97.51-23.56-21.91,5.37-55.03,13.49-97.05,25.2-10.5,2.95-21.55,6.14-33.08,9.68-11.53,3.54-23.55,7.43-35.85,12.03-6.12,2.36-12.35,4.86-18.3,8.04-2.88,1.64-5.81,3.5-8.29,5.74-2.46,2.22-4.52,4.99-4.92,8.18-.22,1.58-.1,3.23.46,4.68.55,1.46,1.55,2.67,2.91,3.39,1.34.75,2.98,1,4.65.94,1.68-.06,3.41-.42,5.12-.9,6.88-2.01,13.81-5.08,18.93-10.31,1.19-1.24,2.25-2.57,3.17-4,.9-1.44,1.64-2.96,2.26-4.53,1.2-3.16,1.84-6.51,2.14-9.87.58-6.72,0-13.45-.48-19.91-1.06-12.93-2.79-24.93-4.18-35.61-2.83-21.35-4.9-37.3-5.73-44.12l1.76-.05c-.89,9.56-3.63,18.26-7.48,25.7-3.85,7.45-8.58,13.75-13.53,19.08-4.97,5.33-10.18,9.69-15.33,13.32-5.15,3.63-10.24,6.54-15.16,8.84-4.9,2.32-9.56,4.21-13.98,5.67-4.4,1.53-8.55,2.66-12.42,3.65-7.76,1.9-14.44,3.01-20.34,3.83,5.87-.99,12.52-2.27,20.21-4.32,3.83-1.07,7.95-2.27,12.3-3.87,4.37-1.53,8.97-3.48,13.8-5.85,4.84-2.35,9.84-5.29,14.89-8.93,5.04-3.65,10.15-8.01,14.99-13.3,4.83-5.29,9.42-11.52,13.14-18.84,3.71-7.31,6.33-15.82,7.14-25.12l.65-7.47,1.11,7.42c1.02,6.8,3.25,22.73,6.18,44.06,1.44,10.67,3.22,22.69,4.32,35.72.27,3.26.5,6.57.65,9.95.14,3.39.17,6.85-.14,10.36-.31,3.51-.98,7.08-2.28,10.51-.67,1.71-1.48,3.38-2.47,4.96-1.01,1.57-2.18,3.04-3.47,4.38M502.58,248.7c2.05-2.09,3.76-4.55,5.05-7.17,1.3-2.62,2.16-5.4,2.71-8.17,1.11-5.57,1.09-11.1.84-16.43-.53-10.65-1.74-21.02-3.06-31.14-2.77-20.18-5.43-39.56-7.95-57.89l-2.51-18.28-1.46,18.4c-.95,12-5.35,23.11-11.43,32.39-3.07,4.64-6.51,8.87-10.16,12.71-3.7,3.8-7.61,7.19-11.59,10.25-4.05,2.96-8.12,5.65-12.26,7.88-4.14,2.24-8.26,4.21-12.33,5.84-8.13,3.32-15.92,5.63-23.08,7.31-14.33,3.36-25.97,4.59-33.9,5.5-3.97.43-7.03.76-9.09.98-2.06.23-3.13.41-3.12.52,0,.11,1.09.15,3.16.13,2.08-.02,5.16-.12,9.16-.36,7.99-.52,19.73-1.37,34.32-4.43,7.28-1.53,15.26-3.72,23.62-6.97,4.19-1.6,8.44-3.54,12.73-5.78,4.3-2.24,8.54-4.96,12.76-7.96,4.15-3.11,8.24-6.56,12.12-10.46,3.83-3.95,7.46-8.31,10.72-13.13,6.45-9.64,11.23-21.33,12.33-34.12l-3.97.11c2.42,18.34,4.98,37.72,7.65,57.9,1.29,10.07,2.46,20.35,2.95,30.79.24,5.19.23,10.39-.78,15.36-.96,4.97-3.11,9.57-6.62,13.15-3.22,3.31-7.32,5.77-11.66,7.63-2.17.92-4.44,1.71-6.7,2.37-2.21.64-4.44,1.04-6.42.87-1.98-.16-3.58-1.02-4.55-2.43-.97-1.43-1.31-3.46-1.03-5.4.13-.97.42-1.92.83-2.78.43-.91,1-1.77,1.66-2.59,1.31-1.63,2.99-3.06,4.81-4.39.91-.64,1.86-1.35,2.82-1.9.97-.56,1.87-1.19,2.89-1.69,1.01-.52,2.01-1.04,3.02-1.56,1.04-.48,2.07-.96,3.11-1.43,2.06-.96,4.19-1.79,6.27-2.69,2.12-.82,4.21-1.67,6.32-2.46,8.44-3.16,16.83-5.98,25.07-8.61,16.47-5.24,32.28-9.8,47.11-13.93,14.83-4.13,28.7-7.81,41.37-11.1,25.35-6.58,45.95-11.6,60.2-15.03,7.12-1.7,12.66-3.03,16.41-3.93,3.75-.91,5.72-1.41,5.69-1.56-.03-.14-2.05.06-5.86.7-3.81.62-9.42,1.66-16.6,3.12-14.37,2.92-35.1,7.49-60.58,13.69-12.74,3.1-26.67,6.61-41.57,10.6-14.9,3.98-30.78,8.42-47.37,13.58-8.29,2.58-16.75,5.38-25.32,8.54-2.14.79-4.28,1.64-6.43,2.47-2.14.91-4.3,1.74-6.44,2.73-1.07.49-2.14.98-3.22,1.47-1.06.55-2.13,1.09-3.2,1.64-1.07.53-2.11,1.23-3.17,1.84-1.07.62-2.02,1.32-3.04,2.03-1.99,1.45-3.97,3.09-5.65,5.16-.84,1.04-1.59,2.17-2.19,3.42-.62,1.29-1.03,2.66-1.23,4.06-.38,2.78,0,5.84,1.72,8.45.87,1.29,2.1,2.38,3.46,3.1,1.37.74,2.87,1.12,4.31,1.24,2.89.24,5.55-.31,8.03-1.01,2.45-.72,4.84-1.54,7.21-2.55,4.71-2.02,9.32-4.74,13.1-8.61Z" stroke="white" fill="none" stroke-width="3"/>
    </g>
  </g>
  <g id="_1" data-name="1">
    <g>
      <path d="M786.19,275.6c-45.35,3.24-89.87,4.76-133.2,6.22-43.33,1.42-85.48,2.26-126.16,3.11-40.67.81-79.88,1.6-117.32,2.35-37.44.87-73.12,1.77-106.75,3.01-67.26,2.36-126.31,5.78-174.84,9.69-6.07.49-11.97.97-17.71,1.44-2.87.24-5.69.47-8.48.7-2.78.27-5.52.54-8.21.8-10.78,1.04-20.88,2.02-30.25,2.93-4.69.42-9.19.99-13.5,1.47-4.32.49-8.45.96-12.39,1.41-7.89.9-15.02,1.7-21.36,2.42l-5.56.63,5.26-1.89c60.23-21.68,111.3-40.89,155.04-58.15,21.88-8.61,41.92-16.76,60.38-24.43,18.47-7.65,35.33-14.87,50.86-21.65,31.04-13.6,56.78-25.3,78.82-36.2,22.04-10.88,40.43-20.83,56.92-30.53-16.42,9.81-34.76,19.86-56.76,30.85-21.99,11.01-47.7,22.81-78.7,36.51-15.51,6.83-32.36,14.1-50.81,21.8-18.44,7.72-38.47,15.92-60.33,24.58-43.72,17.36-94.77,36.67-154.97,58.44l-.3-1.26c6.34-.76,13.47-1.61,21.36-2.55,3.94-.47,8.08-.96,12.39-1.47,4.32-.49,8.81-1.09,13.51-1.53,9.38-.94,19.48-1.96,30.26-3.04,2.7-.27,5.44-.54,8.22-.82,2.78-.24,5.61-.48,8.48-.72,5.74-.48,11.64-.98,17.71-1.49,48.55-4.05,107.63-7.59,174.91-10.05,33.64-1.28,69.33-2.23,106.78-3.14,37.45-.78,76.65-1.59,117.33-2.44,40.67-.88,82.82-1.74,126.13-3.17,43.31-1.47,87.81-3,133.1-6.23,27.16-1.94,53.95-4.57,79.05-7.92,6.27-.89,12.44-1.77,18.49-2.63,6.04-.98,11.95-1.93,17.74-2.87,5.76-1.06,11.39-2.1,16.86-3.1,5.46-1.04,10.74-2.21,15.86-3.26,5.13-1.01,10.03-2.25,14.76-3.34,4.73-1.11,9.27-2.14,13.56-3.33,4.3-1.14,8.38-2.22,12.25-3.24,3.85-1.05,7.44-2.17,10.8-3.15,3.36-1,6.47-1.92,9.33-2.77,2.83-.93,5.39-1.77,7.68-2.53,4.57-1.5,8.03-2.64,10.23-3.36l.43,2.23c-93.25,4.26-179.84,11.9-258.56,21.29-39.37,4.66-76.76,9.84-112.07,15.19-35.31,5.32-68.53,10.9-99.47,16.88-30.93,5.98-59.57,12.37-85.75,19.08-13.08,3.39-25.58,6.75-37.4,10.28-11.81,3.55-22.96,7.26-33.32,11.32-20.71,8.11-38.33,17.48-52.15,27.77-13.83,10.26-23.96,21.07-30.86,30.8l-.68.96v-1.18c-.04-36.65-.58-67.27-1.32-93.22-.77-25.95-1.57-47.25-2.46-65.26-1.73-36.03-3.23-58.94-4.65-79.74,1.56,20.79,3.18,43.7,5.04,79.72.95,18.01,1.81,39.31,2.65,65.27.8,25.96,1.41,56.58,1.5,93.24l-.68-.22c6.86-9.84,17-20.79,30.86-31.19,13.85-10.42,31.53-19.91,52.29-28.13,10.38-4.12,21.55-7.87,33.38-11.46,11.84-3.58,24.33-6.98,37.42-10.41,26.19-6.79,54.85-13.25,85.8-19.3,30.95-6.05,64.18-11.69,99.51-17.07,35.32-5.41,72.73-10.65,112.11-15.36,78.75-9.49,165.38-17.21,258.7-21.53l8.31-.38-7.88,2.61c-2.2.73-5.67,1.88-10.26,3.4-2.29.76-4.87,1.61-7.7,2.55-2.86.85-5.99,1.78-9.36,2.79-3.38.98-6.98,2.11-10.84,3.17-3.87,1.03-7.97,2.11-12.29,3.26-4.3,1.19-8.86,2.23-13.6,3.35-4.75,1.1-9.66,2.35-14.81,3.36-5.14,1.05-10.43,2.23-15.91,3.28-5.49,1.01-11.13,2.05-16.9,3.12-5.8.94-11.73,1.9-17.78,2.88-6.07.87-12.25,1.75-18.53,2.64-25.16,3.36-51.99,5.99-79.2,7.94M786.26,276.6c19.69-1.45,39.26-3.22,58.69-5.39,19.42-2.26,38.68-4.99,57.74-8.24,19.05-3.35,37.87-7.32,56.43-11.89,18.52-4.7,36.73-10.15,54.58-16.24l14.43-4.92-15.24.7c-143.57,6.63-278.94,21.77-401.8,41.77-61.43,9.99-119.77,21.66-173.81,36.69-27,7.44-53.1,15.89-76.68,27.96-11.76,6.03-22.86,12.98-32.82,21.04-9.97,8.04-18.73,17.25-25.87,27.34l2.79.89c-.37-119.86-7.09-216.57-13.09-283.16-3.02-33.3-5.89-59.1-7.94-76.57-1.03-8.73-1.9-15.38-2.47-19.85-.31-2.23-.54-3.92-.69-5.05-.17-1.13-.27-1.7-.31-1.69-.04,0,0,.58.08,1.72.11,1.14.26,2.83.47,5.08.46,4.48,1.15,11.15,2.05,19.9,1.76,17.5,4.36,43.31,7.12,76.62,5.49,66.6,11.73,163.27,11.7,283.02v4.81s2.79-3.92,2.79-3.92c7-9.82,15.59-18.79,25.37-26.64,9.78-7.87,20.7-14.66,32.32-20.58,23.28-11.84,49.17-20.16,76.1-27.51,53.91-14.85,112.13-26.38,173.5-36.25,122.75-19.77,257.98-34.74,401.37-41.28l-.81-4.22c-17.73,6.03-35.81,11.43-54.22,16.1-18.44,4.53-37.16,8.48-56.11,11.81-18.97,3.22-38.15,5.94-57.49,8.19-19.36,2.16-38.87,3.92-58.51,5.37-35.68,2.52-71.12,4.08-106.2,5.31-4.38.17-8.76.33-13.14.5-4.37.14-8.74.27-13.1.41-8.72.27-17.42.54-26.1.8-17.35.45-34.61.89-51.76,1.33-68.6,1.57-135.52,2.64-200.33,4.35-64.81,1.7-127.51,4.05-187.62,7.86-60.11,3.81-117.62,9.05-171.99,15.94l.84,3.5c41.63-15.09,81.36-29.84,118.9-44.37,37.55-14.51,72.9-28.81,105.88-42.72,32.95-13.98,63.55-27.52,91.54-40.63,27.97-13.15,53.29-26.02,75.43-38.88,44.41-25.57,76.07-50.74,95.65-69.77,2.46-2.37,4.82-4.56,6.94-6.7,2.08-2.18,4.02-4.21,5.81-6.09,1.79-1.88,3.44-3.62,4.95-5.2,1.43-1.65,2.72-3.15,3.87-4.48,2.28-2.68,4.01-4.71,5.17-6.07.57-.69.99-1.21,1.28-1.56.28-.35.41-.54.39-.55s-.19.14-.5.46c-.31.33-.77.82-1.39,1.47-1.2,1.32-3,3.29-5.37,5.88-1.18,1.3-2.5,2.77-3.96,4.38-1.53,1.55-3.21,3.25-5.03,5.1-1.82,1.85-3.79,3.85-5.89,5.99-2.15,2.1-4.53,4.25-7.01,6.58-19.76,18.72-51.51,43.53-95.93,68.76-44.34,25.39-101.2,50.8-167.08,78.61-33,13.78-68.37,27.96-105.93,42.35-37.55,14.42-77.29,29.06-118.94,44.05l-15.31,5.51,16.15-2.01c54.3-6.75,111.74-11.88,171.79-15.59,60.05-3.72,122.7-5.98,187.49-7.61,64.78-1.65,131.7-2.66,200.32-4.2,17.16-.43,34.42-.87,51.78-1.31,8.68-.26,17.39-.53,26.12-.8,4.36-.13,8.74-.27,13.11-.4,4.38-.16,8.76-.33,13.15-.49,35.1-1.23,70.59-2.78,106.36-5.31Z" stroke="white" fill="none" stroke-width="3"/>
    </g>
  </g>
  <g id="_2" data-name="2">
    <g>
      <path d="M451.52,20.67c74.4-2.58,139.58-3.75,193.05-4.19,26.74-.25,50.55-.22,71.13-.21,20.58.12,37.93.24,51.74.44-13.81.13-31.16.3-51.74.49-20.58.27-44.38.5-71.11.97-53.46.87-118.6,2.31-192.98,4.89-74.38,2.65-139.47,5.78-192.85,8.67-26.69,1.41-50.46,2.85-71,4.02-20.54,1.25-37.86,2.3-51.65,3.14,13.77-1.18,31.06-2.51,51.58-4.07,20.53-1.46,44.28-3.16,70.97-4.79,53.37-3.32,118.46-6.72,192.86-9.37M451.48,19.67c-48.97,1.74-95.61,3.9-138.01,6.17-21.2,1.2-41.34,2.31-60.18,3.54-9.42.61-18.52,1.19-27.27,1.75-8.74.61-17.13,1.2-25.14,1.76-16.02,1.09-30.5,2.26-43.21,3.25-6.36.51-12.27.98-17.72,1.42-5.44.48-10.41.91-14.89,1.31-8.94.8-15.89,1.46-20.59,1.95-4.7.5-7.17.83-7.15.98.01.15,2.5.11,7.22-.1s11.69-.59,20.65-1.13c17.92-1.08,43.85-2.65,75.9-4.58,8.01-.47,16.4-.96,25.15-1.47,8.75-.48,17.85-.98,27.27-1.5,18.84-1.08,38.98-2.05,60.18-3.13,42.39-2.04,89.01-4.08,137.96-5.82,48.95-1.7,95.59-2.94,138.02-3.88,21.22-.41,41.38-.85,60.25-1.1,9.44-.14,18.55-.28,27.31-.42,8.76-.1,17.17-.2,25.19-.3,32.1-.32,58.08-.58,76.03-.76,8.98-.09,15.95-.2,20.68-.32s7.21-.26,7.21-.41c0-.15-2.48-.31-7.21-.48-4.73-.16-11.7-.33-20.67-.5-4.49-.08-9.48-.16-14.94-.26-5.46-.05-11.4-.11-17.78-.17-12.75-.09-27.28-.24-43.34-.21-8.03,0-16.44,0-25.2.01-8.76.05-17.88.11-27.32.16-18.88.09-39.05.4-60.28.69-42.45.71-89.13,1.84-138.1,3.53Z" stroke="white" fill="none" stroke-width="3"/>
    </g>
  </g>
  <g id="_4" data-name="4">
    <g>
      <path d="M569.06,151.07c5.71,26.94,10.92,50.47,15.8,69.63,2.43,9.58,4.78,18.07,6.86,25.39,2.12,7.31,3.97,13.46,5.51,18.34-1.85-4.77-4.01-10.82-6.41-18.06-2.36-7.25-4.96-15.68-7.6-25.23-5.32-19.09-10.8-42.61-16.51-69.56-.69-3.27-1.38-6.49-1.47-6.94l2.36-.18c-.75,13.21-1.65,25.54-3.6,36.72-1.89,11.19-4.95,21.19-8.87,29.62-3.94,8.45-8.76,15.16-13,20.81-4.27,5.64-8.09,10.21-11.13,13.93,2.79-3.91,6.38-8.67,10.42-14.45,4.01-5.78,8.57-12.58,12.24-20.96,3.66-8.37,6.5-18.23,8.23-29.31,1.8-11.07,2.61-23.3,3.33-36.5l.49-8.94,1.87,8.76c.1.45.79,3.67,1.48,6.94M570.04,150.86c-.5-2.33-.99-4.64-1.48-6.94l-3.46-16.19-.89,16.53c-.92,17.25-2.1,33.56-5.6,47.82-1.71,7.13-4.03,13.69-6.76,19.56-2.7,5.88-5.95,11.02-9.04,15.63-3.12,4.6-6.08,8.69-8.71,12.27-2.62,3.58-4.85,6.68-6.65,9.22-1.83,2.53-3.09,4.64-4.19,5.69-1.1,1.09-1.99,1.2-1.96,1.38,0,.06.24.13.68.07.44-.06,1.1-.28,1.82-.78.72-.49,1.48-1.26,2.27-2.17.78-.92,1.68-1.97,2.69-3.16,2.01-2.39,4.44-5.34,7.24-8.79,2.81-3.44,5.96-7.42,9.29-11.98,3.3-4.57,6.8-9.76,9.77-15.82,2.99-6.03,5.53-12.81,7.41-20.14,3.85-14.66,5.17-31.28,6.12-48.54l-4.34.33c.49,2.3.98,4.61,1.48,6.94,3.78,17.74,7.54,34.62,11.35,49.89,3.79,15.28,7.67,28.93,11.28,40.28,3.61,11.35,6.92,20.41,9.41,26.59,2.51,6.17,4.1,9.5,4.37,9.4.3-.11-.75-3.65-2.75-9.97-1.98-6.33-4.83-15.5-8.04-26.91-3.2-11.41-6.76-25.07-10.32-40.35-3.59-15.27-7.21-32.13-10.99-49.86Z" stroke="white" fill="none" stroke-width="3"/>
    </g>
  </g>
  <g id="_5" data-name="5">
    <g>
      <path d="M624.68,151.22c4.46,11.93,10.44,22.39,15.95,32.05,5.52,9.66,10.85,18.38,15.87,26.1,10.07,15.43,19.03,26.73,25.25,33.97-6.7-6.79-16.19-17.76-26.66-33.02-5.22-7.64-10.73-16.3-16.37-25.94-5.62-9.62-11.73-20.14-16.29-32.33-2.12-5.55-3.45-11.19-3.65-12.06l2.33-.23c-.94,23.83-4.25,43.65-7.92,59.35-3.69,15.72-7.63,27.4-10.63,35.3,2.43-8.09,5.85-19.9,9.12-35.63,3.25-15.72,6.24-35.44,7.07-59.1l.28-8.05,2.05,7.83c.22.84,1.52,6.33,3.6,11.76M625.62,150.87c-1.44-3.87-2.64-7.75-3.55-11.64l-3.78-16.04-.54,16.46c-1.02,30.71-6.2,57.74-11.18,76.77-4.95,19.07-9.21,30.38-8.58,30.62.25.1,1.61-2.61,3.71-7.7,2.1-5.09,4.85-12.6,7.72-22.12,5.78-18.99,11.57-46.29,12.71-77.42l-4.32.42c.95,4.09,2.2,8.16,3.69,12.18,3.01,8.08,6.79,15.57,10.68,22.59,3.91,7.01,7.84,13.63,11.7,19.9,7.74,12.51,15.32,23.43,22.27,32.15,6.89,8.77,13.11,15.33,17.56,19.68,1.13,1.07,2.13,2.02,3,2.85.9.79,1.67,1.46,2.3,1.98,1.26,1.05,1.97,1.55,2.08,1.44.53-.53-9.41-10.04-22.47-27.83-6.56-8.86-13.79-19.84-21.28-32.37-3.73-6.27-7.58-12.92-11.39-19.87-3.79-6.95-7.44-14.26-10.34-22.04Z" stroke="white" fill="none" stroke-width="3"/>
    </g>
  </g>
  <g id="_6" data-name="6">
    <g>
      <path d="M682.58,215.82c1.09,3.65,2.66,7.1,4.77,10.09,2.07,3.01,4.72,5.5,7.67,7.48,2.94,1.99,6.16,3.46,9.43,4.63,3.27,1.18,6.6,2.05,9.9,2.76,3.27.83,6.55,1.31,9.74,1.88,1.61.2,3.2.4,4.77.6.79.09,1.57.2,2.35.28.78.06,1.56.12,2.33.18,6.18.57,12.1.54,17.71.48,11.23-.33,21.2-1.51,29.78-2.77,8.58-1.28,15.78-2.6,21.5-3.71-5.65,1.43-12.8,3.07-21.35,4.63-8.55,1.54-18.55,2.99-29.87,3.54-5.66.17-11.65.3-17.92-.19-.78-.05-1.57-.1-2.37-.15-.79-.06-1.59-.17-2.39-.25-1.6-.18-3.22-.34-4.85-.55-3.25-.54-6.58-1-9.92-1.81-3.36-.69-6.77-1.56-10.18-2.76-3.4-1.2-6.81-2.72-9.97-4.84-3.16-2.09-6.07-4.81-8.32-8.06-2.28-3.23-3.96-6.91-5.11-10.77-2.22-7.47-2.26-15.18-1.07-22.28,1.2-7.13,3.53-13.73,6.4-19.73,2.83-6.03,6.34-11.44,10.2-16.18,3.9-4.71,8.25-8.68,12.84-11.78,4.62-3.05,9.49-5.19,14.26-6.33,2.38-.61,4.79-.89,7.12-.73,2.32.16,4.58.84,6.38,2.12,1.81,1.27,3.02,3.07,3.77,4.88.75,1.83,1.05,3.68,1.19,5.43.25,3.5-.14,6.62-.53,9.32h-.15c-.01-3.27,0-4.19.02-5.08.04.89.07,1.81.13,5.07h-.15c.23-2.72.46-5.84.07-9.25-.21-1.69-.57-3.47-1.34-5.16-.77-1.67-1.94-3.27-3.59-4.36-1.65-1.09-3.7-1.65-5.86-1.74-2.17-.09-4.44.23-6.71.88-4.58,1.22-9.22,3.37-13.62,6.4-4.38,3.08-8.53,7-12.26,11.62-3.69,4.65-7.05,9.95-9.75,15.84-2.75,5.87-4.96,12.31-6.09,19.17-1.12,6.84-1.05,14.16,1.05,21.22M683.54,215.54c-1.85-6.19-2.1-12.7-1.28-18.95.81-6.27,2.66-12.29,5.02-17.92,4.74-11.24,11.69-20.9,19.93-27.6,4.11-3.36,8.59-5.87,13.1-7.51,2.27-.79,4.55-1.47,6.73-1.72,2.19-.26,4.33-.17,6.17.45,1.86.59,3.31,1.79,4.36,3.28,1.02,1.52,1.64,3.29,1.96,5.1.64,3.63.4,7.2.11,10.41l2.26.13c-.25-6.82-.49-12.19-.72-15.86-.23-3.66-.46-5.62-.67-5.62-.21,0-.39,1.97-.53,5.64s-.27,9.04-.35,15.85l2.26.13c.46-3.28.89-6.99.33-11.13-.29-2.06-.93-4.25-2.2-6.28-.66-1-1.47-1.94-2.44-2.74-.98-.8-2.12-1.44-3.32-1.88-2.42-.89-5.03-1.04-7.57-.8-2.57.24-5.04.91-7.53,1.72-4.96,1.68-9.87,4.32-14.33,7.84-8.96,7.04-16.39,17.15-21.47,28.93-2.52,5.89-4.53,12.25-5.43,19.01-.91,6.73-.67,13.9,1.39,20.77,1.53,5.21,4.1,10.15,7.74,14.18,3.64,4.05,8.27,6.87,12.93,8.86,4.7,1.97,9.46,3.26,14.12,4.19,1.17.24,2.32.53,3.48.73,1.16.19,2.32.38,3.47.57,1.15.17,2.29.4,3.43.53,1.14.13,2.28.25,3.41.38,9.04.96,17.68.98,25.7.53,8.03-.45,15.46-1.36,22.18-2.46,3.37-.49,6.55-1.15,9.56-1.69,3-.63,5.84-1.17,8.46-1.79,5.27-1.17,9.77-2.3,13.44-3.27,7.34-1.94,11.33-3.24,11.27-3.52-.07-.31-4.21.43-11.65,1.85-3.72.71-8.26,1.59-13.55,2.53-2.64.5-5.47.92-8.47,1.44-3.01.43-6.17.97-9.52,1.37-6.68.89-14.02,1.62-21.9,1.9-7.88.28-16.31.13-25.08-.91-1.09-.13-2.2-.27-3.3-.41-1.11-.13-2.21-.37-3.32-.55-1.11-.19-2.23-.39-3.35-.58-1.12-.21-2.23-.5-3.36-.74-4.52-.95-9.04-2.22-13.32-4.05-4.26-1.85-8.28-4.36-11.39-7.84-3.11-3.45-5.39-7.8-6.76-12.49Z" stroke="white" fill="none" stroke-width="3"/>
    </g>
  </g>
  <g id="_9" data-name="9">
    <g>
      <path d="M1164.08,66.95c28.59.28,56.28,1.77,82.92,4.26,13.32,1.25,26.38,2.74,39.16,4.48,3.19.45,6.37.89,9.53,1.33,3.16.44,6.32.87,9.45,1.45,6.26,1.13,12.4,2.6,18.36,4.51,5.94,1.94,11.73,4.22,17.06,7.43,5.28,3.21,10.02,7.28,13.67,12.17,1.82,2.44,3.36,5.09,4.52,7.89,1.16,2.8,1.93,5.74,2.32,8.71.72,5.95-.04,11.9-1.64,17.44-1.61,5.55-3.98,10.76-6.74,15.63-.68,1.23-1.43,2.4-2.16,3.58-.74,1.17-1.45,2.36-2.22,3.51-1.61,2.24-3.09,4.55-4.81,6.66-.84,1.07-1.67,2.14-2.5,3.21-.88,1.03-1.75,2.05-2.63,3.07l-1.31,1.53-1.37,1.47c-.91.97-1.82,1.95-2.72,2.91-3.73,3.76-7.51,7.38-11.45,10.7-7.84,6.69-15.95,12.59-24.1,17.87-8.15,5.29-16.27,10.07-24.26,14.46-15.95,8.84-31.27,16.35-45.72,22.75-14.45,6.4-28.03,11.7-40.52,16.15-12.49,4.46-23.94,7.94-34.12,10.9,10.13-3.12,21.53-6.76,33.95-11.36,12.43-4.6,25.93-10.03,40.3-16.55,14.37-6.52,29.6-14.14,45.45-23.07,7.94-4.43,16-9.25,24.08-14.56,8.08-5.31,16.1-11.21,23.83-17.88,3.89-3.31,7.61-6.91,11.28-10.64.89-.96,1.78-1.93,2.68-2.89l1.34-1.45,1.28-1.51c.86-1.01,1.72-2.03,2.58-3.04.82-1.05,1.63-2.11,2.45-3.18,1.69-2.09,3.14-4.37,4.71-6.58.75-1.13,1.44-2.3,2.17-3.46.72-1.16,1.46-2.32,2.11-3.52,2.69-4.78,4.97-9.86,6.5-15.23,1.52-5.35,2.21-11.03,1.51-16.63-.73-5.59-2.99-10.99-6.49-15.6-3.47-4.63-8.01-8.52-13.1-11.58-5.09-3.05-10.79-5.29-16.61-7.17-5.85-1.86-11.9-3.29-18.08-4.39-3.08-.57-6.21-.99-9.38-1.42-3.16-.44-6.33-.87-9.51-1.31-12.75-1.71-25.78-3.18-39.07-4.41-26.58-2.46-54.2-3.93-82.73-4.2-57.07-.47-110.55,3.84-159.54,10.83-24.5,3.46-47.91,7.57-69.92,12.94-11,2.7-21.67,5.66-31.91,9.04-2.56.85-5.11,1.68-7.61,2.59-1.25.44-2.5.89-3.75,1.33-1.24.46-2.47.93-3.7,1.39-4.92,1.84-9.72,3.8-14.35,5.94-9.25,4.27-17.9,9.3-25.16,15.6-3.63,3.13-6.87,6.6-9.62,10.34-.72.91-1.31,1.91-1.97,2.85-.66.95-1.24,1.93-1.78,2.93-1.09,1.99-1.99,4.07-2.64,6.19-1.33,4.22-1.49,8.8.19,12.71,1.7,3.91,5,6.84,8.42,9.23.86.6,1.74,1.18,2.63,1.74.91.53,1.81,1.06,2.71,1.58,1.8,1.05,3.58,2.09,5.34,3.12,1.8.97,3.64,1.81,5.43,2.71.9.44,1.8.88,2.69,1.32.45.21.89.45,1.34.65l1.37.56c14.47,6.23,28.69,9.71,41.75,11.79,13.08,2.06,25.05,2.75,35.64,2.99-10.6-.08-22.58-.6-35.71-2.51-13.11-1.92-27.43-5.27-42.05-11.41l-1.38-.55c-.46-.2-.9-.43-1.35-.64-.9-.43-1.81-.87-2.72-1.3-1.81-.89-3.68-1.72-5.5-2.68-1.79-1.02-3.59-2.06-5.41-3.1-.91-.52-1.82-1.05-2.74-1.57-.9-.56-1.8-1.14-2.68-1.74-1.77-1.22-3.5-2.56-5.06-4.15-1.56-1.57-2.91-3.43-3.85-5.52-.92-2.1-1.36-4.42-1.38-6.73-.03-2.32.39-4.63,1.05-6.86.66-2.23,1.58-4.4,2.7-6.47.56-1.04,1.15-2.06,1.82-3.03.67-.97,1.27-2,2-2.94,2.8-3.85,6.09-7.42,9.78-10.64,7.37-6.47,16.12-11.62,25.45-15.99,4.67-2.18,9.5-4.19,14.43-6.06,1.23-.47,2.47-.94,3.71-1.41,1.25-.45,2.51-.9,3.76-1.35,2.51-.92,5.07-1.77,7.63-2.64,10.28-3.45,20.98-6.47,32.01-9.22,22.08-5.48,45.54-9.67,70.08-13.2,49.07-7.13,102.67-11.51,159.87-11.04M1164.09,65.95c-18.84-.08-37.46.21-55.78,1.05-4.58.17-9.14.5-13.69.74-4.54.26-9.07.5-13.57.88-4.5.34-8.99.69-13.45,1.03-4.46.42-8.9.84-13.32,1.25-2.21.21-4.42.42-6.62.63-2.2.25-4.39.49-6.57.74-4.37.5-8.72.99-13.05,1.48-4.32.57-8.62,1.14-12.9,1.7-2.14.28-4.27.56-6.4.85-2.12.32-4.24.64-6.35.95-16.91,2.43-33.41,5.26-49.41,8.61-15.99,3.35-31.47,7.29-46.25,12-7.39,2.36-14.61,4.86-21.62,7.61-7.02,2.74-13.86,5.69-20.33,9.19-6.48,3.46-12.56,7.49-17.98,12.16-5.36,4.73-10.07,10.08-13.56,16.11-1.72,3.04-3.13,6.27-3.88,9.71-.74,3.41-.85,7.09.24,10.5,1.04,3.45,3.25,6.33,5.7,8.56,2.47,2.24,5.16,4.04,7.84,5.6,10.6,6.58,21.64,11.17,32.31,14.51,1.34.41,2.64.91,3.98,1.24,1.33.35,2.66.69,3.97,1.03,2.63.68,5.21,1.4,7.8,1.86,2.58.5,5.11,1.07,7.62,1.5,2.52.38,4.99.75,7.43,1.11,9.76,1.23,18.9,1.93,27.31,2.05,4.21.16,8.23.09,12.06.05.96,0,1.91-.02,2.84-.03.93-.03,1.86-.07,2.77-.1,1.82-.07,3.59-.14,5.32-.2,13.79-.65,24.45-1.8,31.66-2.62,3.6-.43,6.35-.81,8.19-1.07,1.84-.27,2.78-.44,2.77-.52,0-.08-.96-.05-2.82.07-1.86.12-4.61.36-8.23.64-7.23.53-17.89,1.4-31.64,1.79-1.72.03-3.48.07-5.3.1-.91.02-1.82.04-2.76.05-.93,0-1.87-.01-2.83-.02-3.81-.03-7.81-.02-11.99-.24-8.35-.24-17.4-1.05-27.03-2.39-2.4-.39-4.84-.78-7.33-1.18-2.47-.45-4.96-1.04-7.5-1.56-2.55-.48-5.09-1.21-7.67-1.91-1.29-.35-2.59-.7-3.9-1.06-1.31-.34-2.59-.84-3.9-1.26-10.45-3.39-21.22-7.98-31.53-14.49-2.62-1.55-5.13-3.28-7.31-5.29-2.17-2.02-3.94-4.42-4.75-7.19-.86-2.76-.77-5.83-.1-8.82.68-3.01,1.97-5.95,3.57-8.73,3.29-5.61,7.79-10.67,12.92-15.14,5.21-4.42,11.08-8.28,17.4-11.61,6.3-3.37,13.02-6.23,19.96-8.9,6.94-2.68,14.11-5.13,21.43-7.43,14.65-4.6,30.01-8.45,45.91-11.72,15.9-3.27,32.33-6.04,49.19-8.42,2.1-.31,4.22-.62,6.33-.93,2.12-.28,4.25-.55,6.38-.83,4.26-.55,8.55-1.11,12.85-1.67,4.31-.48,8.65-.97,13.01-1.45,2.18-.24,4.36-.48,6.55-.73,2.19-.2,4.39-.41,6.59-.62,4.4-.41,8.83-.82,13.27-1.23,4.45-.33,8.92-.67,13.4-1.01,4.48-.37,8.99-.61,13.52-.86,4.53-.24,9.07-.56,13.63-.73,18.25-.83,36.79-1.11,55.55-1.02,18.75.26,37.28.87,55.51,2.06,18.22,1.27,36.17,2.77,53.72,4.97,2.2.26,4.39.52,6.57.77,2.18.3,4.36.59,6.53.89,4.34.6,8.66,1.19,12.96,1.79,8.51,1.25,16.84,3.08,24.78,5.72,3.95,1.34,7.84,2.87,11.47,4.71,3.63,1.82,7,4.08,10.04,6.67,6.06,5.17,10.58,12,12.05,19.52.73,3.76.78,7.63.31,11.43-.49,3.81-1.51,7.55-2.83,11.16-1.33,3.61-2.97,7.1-4.84,10.44-.91,1.68-1.96,3.29-2.96,4.92-.51.81-.98,1.64-1.53,2.42l-1.63,2.34c-8.72,12.45-19.41,22.94-30.67,31.82-11.25,8.93-23,16.45-34.57,23.2-11.61,6.69-22.93,12.84-33.95,18.28-22.03,10.88-42.59,19.46-60.96,26.08-18.36,6.66-34.49,11.52-47.77,15.13-6.62,1.86-12.58,3.26-17.71,4.58-5.16,1.2-9.53,2.21-13.06,3.03-3.54.76-6.24,1.36-8.05,1.79-1.81.43-2.73.68-2.72.76.01.07.96-.03,2.8-.32,1.84-.28,4.57-.74,8.15-1.37,3.57-.66,7.97-1.57,13.18-2.62,5.17-1.19,11.17-2.46,17.85-4.2,13.38-3.37,29.64-8,48.16-14.47,18.53-6.43,39.27-14.84,61.51-25.61,11.12-5.38,22.54-11.47,34.28-18.13,11.7-6.72,23.63-14.25,35.13-23.28,11.5-8.98,22.51-19.65,31.57-32.46l1.69-2.41c.57-.8,1.06-1.66,1.59-2.49,1.04-1.68,2.13-3.33,3.09-5.09,1.96-3.48,3.71-7.14,5.14-10.97,1.42-3.83,2.53-7.85,3.09-12.02.53-4.17.51-8.49-.31-12.73-.45-2.11-1.01-4.22-1.85-6.23-.79-2.03-1.81-3.96-2.96-5.81-2.3-3.7-5.24-6.97-8.51-9.83-3.3-2.83-6.94-5.28-10.85-7.26-3.88-1.99-7.91-3.57-12.02-4.98-8.24-2.77-16.8-4.66-25.5-5.96-4.32-.6-8.66-1.21-13.02-1.82-2.18-.3-4.37-.6-6.56-.9-2.2-.26-4.4-.52-6.6-.79-17.62-2.24-35.65-3.77-53.95-5.06-18.31-1.21-36.92-1.83-55.76-2.09Z" stroke="white" fill="none" stroke-width="3"/>
    </g>
  </g>
  <g id="_8" data-name="8">
    <g>
      <path d="M1264.99,375.65c20.92,1.01,41.24.09,60.84-1.12,19.6-1.28,38.51-2.67,56.69-3.92,36.35-2.5,69.75-4.79,99.86-6.86,60.22-4.07,107.26-7.12,138.39-9.01-31.08,2.55-78.09,6.2-138.27,10.71-30.09,2.22-63.48,4.69-99.82,7.37-18.17,1.3-37.07,2.75-56.7,4.06-19.62,1.24-40.03,2.19-61.1,1.17-21.05-.94-41.42-4.08-60.35-9.81-18.89-5.78-36.33-14.24-51.01-25.3-7.37-5.5-13.86-11.76-20.06-17.91-6.21-6.15-12.21-12.21-18.59-17.5-3.16-2.68-6.48-5.06-9.86-7.26-3.39-2.17-6.94-3.98-10.53-5.53-7.25-2.99-14.87-4.44-22.31-5.14-7.46-.7-14.78-.68-21.89-.52-3.56.11-7.06.17-10.51.33-3.45.18-6.84.29-10.18.52-13.35.82-25.81,2.05-37.31,3.61-11.5,1.54-22.05,3.35-31.62,5.18-4.77.99-9.32,1.86-13.6,2.86-2.14.48-4.22.95-6.25,1.41-2.01.49-3.97.96-5.86,1.43,1.88-.5,3.83-1.01,5.83-1.55,2.01-.49,4.09-1,6.22-1.53,4.26-1.08,8.8-2.03,13.56-3.09,9.55-1.99,20.08-3.94,31.59-5.63,11.5-1.7,23.97-3.07,37.35-4.02,3.34-.26,6.75-.4,10.2-.61,3.46-.19,6.97-.27,10.54-.42,7.13-.22,14.51-.29,22.09.36,7.56.66,15.36,2.08,22.86,5.12,3.72,1.57,7.37,3.41,10.86,5.62,3.47,2.23,6.87,4.65,10.1,7.35,6.51,5.34,12.58,11.42,18.8,17.53,6.22,6.12,12.65,12.26,19.91,17.64,14.48,10.84,31.68,19.14,50.36,24.82,18.72,5.64,38.88,8.73,59.79,9.66M1265.04,374.65c-13.72-.64-27.22-2.16-40.29-4.79-6.53-1.35-12.95-2.95-19.24-4.82-6.27-1.93-12.39-4.13-18.33-6.61-5.92-2.53-11.63-5.37-17.13-8.46-5.46-3.16-10.67-6.62-15.61-10.32-9.82-7.48-18.21-16.39-26.89-24.73-4.34-4.17-8.77-8.21-13.47-11.85-4.7-3.64-9.68-6.87-14.96-9.38-5.27-2.54-10.84-4.24-16.36-5.33-5.53-1.09-11.03-1.6-16.42-1.82-5.39-.22-10.67-.15-15.82,0-5.16.18-10.21.35-15.17.67-4.96.24-9.8.69-14.54,1.04-4.73.48-9.37.86-13.88,1.43-18.06,2.08-34.27,4.9-48.37,7.97-14.1,3.05-26.12,6.25-35.85,9.15-9.72,2.92-17.19,5.45-22.21,7.28-2.51.93-4.41,1.65-5.68,2.16s-1.91.81-1.88.88c.03.07.71-.08,2.03-.45,1.32-.37,3.27-.96,5.81-1.75,5.1-1.55,12.63-3.81,22.39-6.47,9.77-2.64,21.79-5.58,35.88-8.39,14.08-2.82,30.24-5.42,48.21-7.29,4.49-.52,9.1-.85,13.81-1.27,4.72-.3,9.53-.7,14.46-.89,4.92-.27,9.95-.4,15.07-.54,5.12-.11,10.32-.14,15.58.11,10.48.49,21.34,2.15,31.26,6.99,9.96,4.79,18.78,12.38,27.29,20.66,8.54,8.27,17.01,17.36,27.15,25.15,5.08,3.83,10.43,7.42,16.04,10.68,5.64,3.2,11.51,6.13,17.57,8.74,6.09,2.55,12.35,4.82,18.75,6.8,6.42,1.93,12.97,3.57,19.63,4.95,13.33,2.7,27.06,4.25,40.95,4.9,27.82,1.32,54.9-.68,80.89-2.54,26-1.9,51.09-3.73,74.98-5.47,47.78-3.58,90.82-6.81,126.95-9.52,36.13-2.77,65.37-5.1,85.57-6.8,10.1-.85,17.94-1.55,23.25-2.07,2.66-.26,4.68-.48,6.04-.65,1.36-.17,2.05-.3,2.05-.37,0-.08-.71-.1-2.08-.08-1.37.02-3.4.1-6.07.21-5.33.24-13.19.66-23.31,1.25-20.23,1.18-49.5,3.03-85.67,5.4-36.16,2.44-79.21,5.35-127.02,8.58-23.9,1.66-48.99,3.41-75,5.22-25.99,1.8-52.91,3.75-80.37,2.45Z" stroke="white" fill="none" stroke-width="3"/>
    </g>
  </g>
  <g id="_7" data-name="7">
    <g>
      <path d="M984.52,347.48c5.93-.92,11.78-2.32,17.47-3.94,1.42-.36,2.83-.92,4.23-1.38,1.41-.48,2.81-.97,4.21-1.45,2.8-.96,5.59-1.92,8.37-2.87,11.14-3.74,21.99-7.77,32.69-11.6,1.34-.48,2.67-.96,4-1.44,1.32-.5,2.64-1,3.96-1.49,2.64-.99,5.26-1.98,7.87-2.97,5.22-1.98,10.39-3.93,15.52-5.87,5.1-2.01,10.15-4,15.15-5.96,5-1.97,9.96-3.9,14.82-5.93,39.04-15.86,74.4-31.69,105.93-46.68,7.87-3.77,15.56-7.37,22.93-11.07,3.7-1.83,7.34-3.62,10.92-5.39,3.59-1.77,7.12-3.51,10.56-5.29,6.9-3.52,13.58-6.93,20.03-10.22,6.41-3.37,12.58-6.63,18.53-9.76,5.96-3.1,11.62-6.21,17.06-9.16,5.43-2.96,10.65-5.75,15.58-8.48,4.92-2.75,9.61-5.37,14.04-7.85,4.44-2.48,8.64-4.79,12.54-7.06-3.86,2.34-8.02,4.72-12.42,7.28-4.4,2.55-9.04,5.23-13.93,8.06-4.9,2.8-10.08,5.66-15.47,8.69-5.4,3.02-11.03,6.19-16.96,9.36-5.92,3.19-12.06,6.51-18.44,9.95-6.42,3.35-13.07,6.82-19.95,10.4-3.43,1.81-6.95,3.58-10.52,5.37-3.57,1.8-7.2,3.63-10.89,5.48-7.35,3.75-15.01,7.41-22.87,11.23-31.46,15.19-66.78,31.2-105.83,47.19-4.86,2.05-9.82,3.99-14.82,5.98-5,1.98-10.05,3.99-15.15,6.01-5.11,1.99-10.3,3.92-15.52,5.91-2.61.99-5.24,1.98-7.87,2.98-1.32.5-2.64,1-3.96,1.5-1.33.48-2.67.96-4,1.45-10.71,3.84-21.56,7.89-32.74,11.65-2.79.96-5.59,1.92-8.39,2.89-1.4.48-2.81.97-4.22,1.45-1.42.47-2.8,1.02-4.27,1.4-5.81,1.66-11.71,3.07-17.79,4.02-3.26.49-6.54.81-9.81.96-3.28.13-6.56.03-9.8-.29-3.25-.33-6.45-.97-9.56-1.83-1.54-.5-3.09-.86-4.67-1.66-.77-.4-1.53-.89-2.22-1.52-.68-.63-1.28-1.46-1.6-2.41-.34-.95-.38-1.96-.23-2.88.14-.92.44-1.77.82-2.55.75-1.55,1.75-2.87,2.82-4.08,2.16-2.41,4.62-4.4,7.27-6.1,2.65-1.69,5.48-3.02,8.39-4.03,1.45-.51,2.93-.93,4.41-1.28.74-.17,1.49-.33,2.24-.47.75-.13,1.5-.17,2.25-.26,6-.81,11.87-.42,17.57.09,2.84.36,5.66.64,8.4,1.18,1.38.24,2.75.48,4.11.72,1.35.3,2.69.59,4.02.88,10.66,2.38,20.59,5.51,29.77,8.89,9.17,3.39,17.59,7.06,25.16,10.86,7.55,3.82,14.3,7.78,19.89,11.97,5.62,4.16,10.15,8.42,13.69,12.34,1.76,1.99,3.23,3.89,4.55,5.6.66.84,1.27,1.69,1.85,2.35.3.33.6.64.87.85.13.11.27.17.3.18,0,.01,0-.03,0,.03v.12c-.02.05,0,.12,0,.12.02.06-.02-.07-.12-.14l.35.23c-.05-.12-.14-.2-.25-.25-.08-.05-.13-.1-.1-.08v-.02s.05-.11.07-.16c.05-.15.09-.32.12-.51.07-.37.11-.77.14-1.18.07-.81.09-1.63.1-2.46.02-1.65.04-3.33.08-4.97.09-3.29.29-6.52.54-9.69.52-6.34,1.34-12.42,2.34-18.26.99-5.84,2.19-11.42,3.47-16.78.34-1.34.63-2.67,1-3.97.37-1.3.73-2.59,1.1-3.86.73-2.55,1.42-5.06,2.15-7.51,5.86-19.59,11.7-35.99,17.01-50.08,10.71-28.15,19.03-47.13,25.66-62.5-6.35,15.49-14.39,34.59-24.84,62.8-5.18,14.12-10.89,30.55-16.62,50.13-.72,2.45-1.39,4.95-2.1,7.5-.35,1.27-.71,2.56-1.07,3.86-.36,1.3-.65,2.62-.97,3.95-1.24,5.34-2.4,10.9-3.36,16.71-.97,5.8-1.75,11.85-2.24,18.14-.23,3.15-.42,6.35-.49,9.61-.04,1.64-.05,3.26-.06,4.95-.01.84-.03,1.69-.1,2.56-.03.44-.08.88-.16,1.33-.04.23-.09.47-.17.72-.06.15-.08.25-.18.43-.05.09-.08.16-.16.25-.09.11-.2.21-.32.29l.15-.12c-.16.16-.38.32-.65.38-.27.07-.51.04-.71,0-.39-.1-.64-.27-.87-.43-.45-.33-.79-.69-1.14-1.06-.7-.77-1.27-1.57-1.96-2.41-1.34-1.68-2.81-3.55-4.54-5.45-3.49-3.8-7.97-7.93-13.51-11.98-5.52-4.08-12.17-7.93-19.67-11.68-7.51-3.73-15.88-7.33-24.98-10.66-9.11-3.32-18.97-6.39-29.5-8.71-1.32-.29-2.64-.57-3.98-.86-1.34-.23-2.69-.46-4.05-.7-2.71-.53-5.47-.79-8.26-1.15-5.57-.49-11.33-.86-17.03-.07-.71.09-1.44.13-2.14.25-.7.13-1.41.28-2.11.44-1.41.33-2.8.74-4.17,1.22-2.75.96-5.41,2.22-7.89,3.81-2.47,1.58-4.8,3.49-6.76,5.68-.97,1.1-1.84,2.28-2.45,3.53-.6,1.24-.86,2.56-.48,3.62.35,1.07,1.41,1.94,2.65,2.58,1.23.64,2.77,1.02,4.24,1.49,2.98.82,6.04,1.43,9.16,1.75,3.12.3,6.28.4,9.46.27,3.18-.15,6.36-.47,9.55-.94M984.36,346.49c-9.66,1.44-19.52,1.51-28.56-1.31l-1.69-.52c-.51-.18-1-.38-1.45-.59-.91-.43-1.6-1-1.99-1.54-.34-.55-.47-1.1-.33-1.9.13-.79.56-1.7,1.11-2.58,1.13-1.77,2.74-3.43,4.46-4.91,1.73-1.49,3.62-2.78,5.61-3.89,3.99-2.19,8.41-3.7,12.9-4.35,2.29-.2,4.53-.59,6.87-.52l3.47-.05c1.16.04,2.32.13,3.47.2,9.26.59,18.41,2.4,27.28,4.67,8.88,2.3,17.53,5.13,25.91,8.31,8.38,3.19,16.49,6.75,24.21,10.74,1.91,1.04,3.8,2.07,5.69,3.09,1.83,1.11,3.69,2.16,5.48,3.31,3.57,2.31,6.99,4.78,10.2,7.44,3.2,2.65,6.21,5.53,8.93,8.53,1.34,1.51,2.62,3.11,3.9,4.73.65.82,1.24,1.6,1.98,2.49.38.44.77.87,1.32,1.34.29.23.59.49,1.19.73.32.11.73.24,1.31.18.59-.06,1.16-.39,1.49-.74l-.35.29c.15-.1.29-.22.42-.35.13-.13.26-.29.29-.35.1-.16.22-.37.27-.5.11-.26.19-.5.23-.69.11-.4.15-.73.2-1.06.08-.65.12-1.25.15-1.84.06-1.18.05-2.34.06-3.44.01-2.21.07-4.4.16-6.59.19-4.37.53-8.68,1.01-12.94.95-8.51,2.42-16.78,4.19-24.78.45-2,.91-3.98,1.38-5.93.5-1.95,1.07-3.89,1.59-5.82.53-1.93,1.06-3.84,1.59-5.74.56-1.89,1.12-3.78,1.68-5.64.56-1.87,1.11-3.72,1.66-5.57.58-1.83,1.16-3.65,1.73-5.46.57-1.81,1.14-3.6,1.7-5.38.59-1.77,1.18-3.53,1.76-5.27,9.33-27.9,18.95-51.8,26.94-71.48,8.1-19.65,14.47-35.14,18.83-45.71,2.16-5.29,3.78-9.37,4.85-12.14,1.06-2.76,1.57-4.21,1.47-4.25-.1-.04-.79,1.33-2.04,4.01-1.25,2.68-3.05,6.69-5.39,11.91-4.65,10.45-11.47,25.75-19.83,45.31-8.31,19.58-18.23,43.41-27.86,71.34-.6,1.75-1.21,3.51-1.81,5.28-.58,1.78-1.17,3.58-1.76,5.39-.59,1.81-1.18,3.63-1.78,5.47-.57,1.85-1.14,3.71-1.71,5.58-.57,1.87-1.15,3.76-1.73,5.66-.55,1.91-1.1,3.84-1.65,5.78-.54,1.94-1.13,3.89-1.65,5.87-.5,2-.98,4-1.45,6.02-1.85,8.09-3.39,16.47-4.41,25.14-.51,4.33-.89,8.73-1.11,13.19-.11,2.23-.17,4.47-.2,6.73-.02,1.14-.01,2.21-.07,3.28-.03.53-.07,1.05-.13,1.52-.03.22-.07.46-.11.59l-.03.09h0s-.06-.01.19.1c.19.11.29.12.42.18.12.06.24.13.35.21.13.11.18.12.24.17.06.05.11.11.15.19l-.35-.23c.14.12.13.2.12.12-.02-.09,0-.35.14-.66.07-.18.15-.37.26-.55.04-.08.04-.08.03-.07h0s0,0-.01,0c-.03-.02-.08-.06-.14-.11-.24-.2-.55-.53-.84-.88-.62-.79-1.24-1.59-1.87-2.38-1.28-1.64-2.6-3.31-4.03-4.93-2.89-3.21-5.98-6.19-9.32-8.99-3.33-2.79-6.87-5.37-10.55-7.77-1.85-1.2-3.76-2.29-5.65-3.45-1.93-1.06-3.88-2.13-5.83-3.2-7.87-4.11-16.1-7.75-24.6-11.02-8.5-3.26-17.28-6.16-26.34-8.53-9.06-2.34-18.41-4.22-28.09-4.86-1.21-.07-2.42-.16-3.64-.21l-3.68.04c-2.45-.07-4.94.33-7.42.56-5,.72-9.85,2.36-14.35,4.82-2.24,1.24-4.38,2.7-6.34,4.38-1.96,1.69-3.81,3.54-5.32,5.89-.73,1.19-1.42,2.51-1.72,4.14-.14.81-.2,1.7-.02,2.6.16.9.53,1.78,1.03,2.53,1.03,1.47,2.39,2.39,3.69,3.03.66.32,1.31.58,1.96.81l1.84.57c4.91,1.51,10.05,2.3,15.18,2.45,5.13.17,10.26-.23,15.32-.99,4.04-.62,8.01-1.46,11.92-2.44,1.96-.49,3.88-1,5.84-1.56l1.46-.42,1.41-.48,2.81-.97c7.49-2.58,14.93-5.14,22.32-7.68,7.34-2.65,14.62-5.28,21.84-7.9,3.62-1.28,7.19-2.66,10.75-4.01,3.56-1.35,7.11-2.69,10.64-4.03,3.53-1.35,7.06-2.64,10.53-4.03,3.48-1.38,6.94-2.75,10.39-4.12,6.89-2.74,13.73-5.4,20.43-8.22,6.71-2.79,13.35-5.54,19.91-8.27,6.52-2.82,12.98-5.6,19.35-8.35,1.59-.69,3.18-1.37,4.76-2.06,1.57-.71,3.14-1.41,4.7-2.11,3.12-1.4,6.23-2.8,9.31-4.18,6.17-2.77,12.26-5.48,18.2-8.3,5.96-2.78,11.83-5.52,17.6-8.22,5.74-2.78,11.39-5.51,16.94-8.2,2.78-1.35,5.53-2.68,8.26-4.01,2.71-1.36,5.4-2.71,8.06-4.04,5.32-2.68,10.54-5.3,15.66-7.88,5.11-2.6,10.06-5.23,14.94-7.75,4.86-2.56,9.65-4.99,14.26-7.49,4.62-2.49,9.12-4.92,13.52-7.3,4.39-2.37,8.68-4.67,12.79-6.99,8.24-4.63,16.06-8.91,23.28-13.08,7.21-4.18,13.93-8.06,20.1-11.64,6.12-3.67,11.72-7.02,16.75-10.04,2.51-1.51,4.88-2.94,7.11-4.29,2.21-1.37,4.27-2.66,6.19-3.85,3.82-2.41,7.06-4.44,9.67-6.09,2.61-1.66,4.58-2.94,5.9-3.82,1.32-.88,1.97-1.36,1.93-1.43-.04-.06-.77.29-2.17,1.05s-3.45,1.91-6.12,3.44c-2.67,1.55-5.98,3.46-9.88,5.72-1.95,1.14-4.05,2.36-6.29,3.68-2.26,1.29-4.66,2.66-7.21,4.11-5.09,2.91-10.74,6.15-16.93,9.7-6.23,3.48-12.99,7.25-20.26,11.31-7.27,4.06-15.13,8.24-23.41,12.77-4.13,2.28-8.44,4.52-12.85,6.84-4.41,2.32-8.93,4.71-13.57,7.15-4.63,2.46-9.43,4.84-14.31,7.35-4.89,2.48-9.86,5.07-14.98,7.62-5.13,2.53-10.36,5.11-15.69,7.75-2.67,1.31-5.36,2.64-8.07,3.98-2.73,1.3-5.49,2.62-8.27,3.94-5.56,2.65-11.22,5.34-16.96,8.08-5.78,2.66-11.65,5.37-17.61,8.11-5.94,2.78-12.04,5.46-18.21,8.19-3.08,1.37-6.19,2.75-9.31,4.13-1.56.69-3.13,1.39-4.7,2.09-1.58.68-3.17,1.35-4.76,2.03-6.37,2.72-12.81,5.47-19.34,8.26-6.56,2.7-13.19,5.43-19.89,8.19-6.69,2.8-13.52,5.43-20.4,8.15-3.44,1.35-6.9,2.72-10.37,4.08-3.47,1.38-7,2.65-10.52,4-3.53,1.33-7.07,2.66-10.62,4-3.56,1.34-7.12,2.7-10.73,3.98-7.21,2.6-14.48,5.21-21.8,7.85-7.35,2.52-14.75,5.07-22.2,7.63l-2.8.96-1.4.48-1.4.4c-1.85.53-3.76,1.04-5.66,1.51-3.8.95-7.64,1.76-11.51,2.36Z" stroke="white" fill="none" stroke-width="3"/>
    </g>
  </g>
  <g id="_10" data-name="10">
    <g>
      <path d="M1339.18,419.02c18.82-15.2,37.45-29.69,55.08-44.35,8.82-7.32,17.41-14.63,25.66-22.06,8.24-7.43,16.17-14.93,23.4-22.78,3.6-3.93,7.04-7.95,10.04-12.19,1.5-2.11,2.9-4.28,4.05-6.53,1.14-2.24,2.06-4.6,2.33-6.94.1-1.16.04-2.3-.31-3.33-.37-1.02-1.01-1.89-1.84-2.62l-.66-.51c-.23-.16-.49-.29-.74-.44-.48-.31-1.05-.5-1.58-.74l-.2-.08s-.06-.01-.09-.02c-.08-.02-.2-.03-.32-.04-.25-.02-.53-.02-.82,0-.58.02-1.18.09-1.78.17-1.18.17-2.43.41-3.46.76-.14.05-.2.08-.33.13l-.42.21-.83.42-1.66.84c-2.23,1.08-4.38,2.3-6.54,3.46-4.25,2.44-8.39,4.95-12.27,7.73-3.88,2.78-7.56,5.73-10.92,8.92-6.7,6.35-12.25,13.82-14.69,22.12-1.15,4.13-1.47,8.46-.52,12.47.48,2,1.24,3.9,2.26,5.65,1.06,1.72,2.37,3.26,3.85,4.58,2.99,2.64,6.71,4.29,10.51,5.09,3.82.76,7.73.79,11.47.19,7.51-1.21,14.34-4.43,20.17-8.4,1.49-.95,2.86-2.05,4.25-3.08,1.32-1.12,2.69-2.16,3.92-3.33.63-.57,1.25-1.14,1.87-1.71.59-.59,1.18-1.18,1.77-1.77,1.2-1.15,2.27-2.4,3.37-3.58,4.33-4.83,7.98-9.83,11.13-14.73,3.14-4.92,5.87-9.7,8.18-14.31,4.67-9.18,7.89-17.49,10.41-24.39l.5-1.36.45,1.38c.62,1.93,1.67,3.73,2.7,5.45,1.04,1.72,2.15,3.36,3.26,4.95,2.22,3.18,4.44,6.16,6.57,9.01,4.28,5.69,8.22,10.86,11.7,15.69,3.48,4.83,6.52,9.31,9.02,13.59,2.46,4.28,4.52,8.35,5.26,12.46.17,1.03.24,2.05.14,3.06-.11,1-.42,1.98-.97,2.8-1.11,1.67-2.93,2.45-4.59,2.84-3.4.61-6.58.19-9.29-.74-2.71-.95-5.02-2.34-6.85-4.03-1.84-1.67-3.26-3.58-4.22-5.63h0c-.92-1.52-1.04-3.16-.53-4.28.46-1.15,1.26-1.8,1.91-2.23,1.37-.82,2.33-.93,3.22-1.03h-.01c9.7-1.93,16-2.92,20.51-3.68,4.51-.74,7.25-1.2,9.92-1.64-2.66.47-5.4.95-9.9,1.74-4.5.81-10.79,1.83-20.48,3.79h0s0,0,0,0c-.86.11-1.8.23-3.1,1.03-.62.42-1.37,1.04-1.79,2.11-.47,1.05-.36,2.57.53,4.04h0s0,.01,0,.01c.98,2,2.39,3.86,4.22,5.47,1.81,1.63,4.09,2.96,6.74,3.86,2.65.87,5.76,1.25,9.02.63,1.57-.37,3.24-1.13,4.2-2.61.98-1.48,1.05-3.48.69-5.42-.74-3.94-2.79-7.97-5.26-12.19-2.5-4.23-5.56-8.68-9.05-13.48-3.5-4.8-7.46-9.95-11.76-15.63-2.15-2.84-4.39-5.82-6.63-9.01-1.12-1.6-2.24-3.24-3.31-4.99-1.05-1.75-2.12-3.56-2.82-5.66l.95.02c-2.43,6.96-5.58,15.35-10.2,24.64-2.29,4.66-4.99,9.51-8.13,14.5-3.15,4.98-6.81,10.06-11.17,15-1.12,1.21-2.19,2.48-3.41,3.66-.59.6-1.19,1.2-1.79,1.81-.63.58-1.26,1.16-1.89,1.75-1.25,1.2-2.63,2.27-3.98,3.42-1.42,1.06-2.81,2.19-4.34,3.18-5.96,4.1-12.97,7.47-20.83,8.78-3.92.65-8.05.65-12.13-.15-4.06-.84-8.1-2.59-11.4-5.47-1.63-1.44-3.08-3.13-4.25-5.02-1.13-1.91-1.97-4.01-2.51-6.2-1.06-4.4-.71-9.07.5-13.47,1.27-4.4,3.38-8.57,5.99-12.41,2.62-3.85,5.75-7.4,9.19-10.68,3.44-3.28,7.19-6.31,11.13-9.15,3.95-2.84,8.14-5.41,12.45-7.89,2.18-1.18,4.35-2.42,6.61-3.52l1.68-.85.84-.43.42-.21c.16-.07.39-.17.54-.22,1.35-.45,2.59-.68,3.9-.88.65-.09,1.31-.17,1.99-.2.34-.01.7-.02,1.08,0,.2.02.39.04.62.08l.37.1.24.1c.63.28,1.27.49,1.87.87.3.18.61.33.9.54l.85.65c1.09.94,2.01,2.18,2.51,3.58.48,1.42.54,2.89.43,4.29-.32,2.8-1.34,5.35-2.55,7.74-1.22,2.39-2.67,4.64-4.21,6.82-3.09,4.36-6.57,8.44-10.2,12.43-7.3,7.95-15.26,15.5-23.52,22.97-8.27,7.46-16.88,14.81-25.71,22.14-17.65,14.69-36.29,29.22-55.08,44.38-3.05,2.39-5.79,5.04-7.01,7.52-.64,1.22-.85,2.33-.88,3.16-.01.83.13,1.39.15,1.6l-.14-.34c.51.84,1.05,1.66,1.65,2.36.59.69,1.29,1.29,1.84,1.42.27.07.47.05.72-.05.25-.11.53-.34.8-.63.54-.59.99-1.44,1.39-2.3,1.53-3.54,2.33-7.53,3.05-11.41,1.37-7.83,2.15-15.64,2.82-23.2,1.29-15.13,2.02-29.33,2.73-41.81.7-12.48,1.33-23.26,2.16-31.6.43-4.18.87-7.73,1.56-10.64.18-.73.38-1.41.64-2.08.14-.34.29-.66.52-1.01.22-.31.53-.77,1.27-.99.17-.05.38-.05.56-.04.18.01.33.07.49.12.26.11.49.27.62.4.16.14.28.27.37.39.11.13.19.25.26.36.3.46.48.85.64,1.19l.11.23v.26c-.31,5.9-1.47,11.61-3.09,17.02-1.61,5.41-3.71,10.52-6.14,15.22-2.43,4.7-5.27,8.96-8.4,12.64-3.15,3.65-6.67,6.65-10.35,8.74-3.68,2.11-7.56,3.1-10.99,3.27-3.45.17-6.44-.43-8.75-1.23-.58-.2-1.15-.34-1.64-.57-.5-.22-.97-.43-1.4-.62-.43-.2-.84-.37-1.21-.54-.35-.2-.67-.38-.96-.54-1.15-.65-1.79-1.02-1.84-1.06l-.08-.06c-1.88-1.49-3.1-3.5-4.02-5.5-.91-2.02-1.52-4.1-2-6.17-.92-4.14-1.3-8.23-1.47-12.12-.31-7.81.2-14.89.89-20.77.71-5.88,1.62-10.54,2.63-13.57.26-.76.51-1.41.89-2,.2-.27.38-.64,1.03-.85.33-.11.78.05.95.2.09.07.17.15.24.23.06.07.09.12.13.18.16.24.2.38.25.51.01.03.02.06.03.09v.02s0,0,0,0c-.03-.36.04.5.03.41h0s0,.01,0,.01v.03s-.02.06-.03.09c-.01.04-.01.05-.01.03,0-.01,0-.03,0-.06,0-.01,0-.03,0-.05v-.03s0,0,0-.01h0s0-.01,0-.01h0c-.01-.18.03.4-.03-.4l.03.4c-1.19,6.47-2.87,12.67-4.88,18.5-.53,1.45-.98,2.91-1.57,4.31-.57,1.4-1.14,2.79-1.7,4.16-.58,1.36-1.24,2.68-1.84,3.99-.31.65-.61,1.31-.92,1.95-.34.63-.67,1.26-1.01,1.88-2.57,5.04-5.58,9.5-8.53,13.53-1.59,1.93-2.99,3.9-4.62,5.54-.78.85-1.55,1.68-2.3,2.49-.78.78-1.59,1.5-2.36,2.22-6.18,5.75-12.11,9.08-16.11,11.02-4.12,1.71-6.19,2.47-5.66,2.25h-.04c-6.4,1.59-13.22.64-17.98-2.65-.63-.35-1.17-.8-1.71-1.24-.54-.44-1.1-.85-1.54-1.36-.47-.49-.94-.95-1.38-1.44-.39-.52-.78-1.03-1.16-1.53-.41-.48-.68-1.04-.99-1.55-.29-.53-.64-1.01-.85-1.55-.43-1.06-.96-2.04-1.2-3.05-.15-.5-.29-.98-.43-1.44-.15-.46-.18-.94-.28-1.38-.15-.9-.33-1.72-.34-2.5-.04-.77-.08-1.47-.11-2.09.04-.62.07-1.17.1-1.64.06-.91.09-1.5.11-1.74.02-.26.01-.08,0,.38v.04c.1-4.54.66-8.88,1.53-12.96.86-4.09,2.03-7.93,3.48-11.49,1.42-3.56,3.02-6.88,4.82-9.9.85-1.54,1.84-2.95,2.75-4.37.47-.7.98-1.36,1.46-2.03.49-.66.95-1.33,1.48-1.94,1.02-1.25,2-2.48,3.06-3.6.52-.56,1.02-1.14,1.55-1.68.54-.53,1.07-1.05,1.59-1.57,1.02-1.06,2.15-1.96,3.19-2.9,1.06-.93,2.17-1.77,3.31-2.49,2.28-1.44,4.72-2.49,7.22-2.74,1.25-.12,2.49.03,3.63.43,1.15.38,2.11,1.13,2.9,1.93,1.59,1.65,2.44,3.79,2.61,5.86.18,2.08-.28,4.08-1.15,5.77-.43.85-.98,1.6-1.47,2.34-.5.75-.98,1.48-1.46,2.19-.94,1.44-1.85,2.83-2.72,4.16-3.46,5.36-6.32,9.98-9.04,14.35,2.67-4.41,5.47-9.07,8.87-14.46.86-1.34,1.73-2.75,2.68-4.19.47-.72.95-1.46,1.44-2.21.48-.76,1.02-1.5,1.43-2.33.82-1.65,1.25-3.6,1.06-5.6-.18-1.99-1.02-4.04-2.55-5.61-1.48-1.62-3.81-2.45-6.19-2.19-2.39.26-4.76,1.29-6.99,2.71-1.12.71-2.2,1.54-3.24,2.46-1.03.94-2.14,1.84-3.15,2.9-.52.52-1.04,1.04-1.57,1.56-.52.53-1.01,1.11-1.53,1.67-1.05,1.11-2.02,2.34-3.02,3.58-.52.61-.97,1.27-1.46,1.93-.47.67-.98,1.32-1.44,2.01-.89,1.41-1.87,2.81-2.7,4.34-1.77,3-3.34,6.3-4.74,9.83-1.41,3.53-2.56,7.34-3.4,11.38-.84,4.04-1.38,8.33-1.47,12.82v.04c.03-.6.04-.67.04-.45-.01.24-.04.84-.08,1.77-.02.45-.05.98-.08,1.58.04.6.08,1.28.13,2.02,0,.75.19,1.54.34,2.4.09.43.12.88.27,1.33.14.45.28.91.42,1.38,1.15,3.76,3.86,8.19,8.49,11.16,4.54,3.12,11.03,4.01,17.18,2.48h-.04c-.54.19,1.48-.6,5.49-2.32,3.9-1.95,9.68-5.23,15.72-10.91.75-.71,1.54-1.42,2.3-2.19.73-.8,1.48-1.62,2.25-2.46,1.59-1.62,2.97-3.57,4.52-5.47,2.89-3.98,5.84-8.38,8.36-13.36.33-.62.66-1.24.99-1.86.31-.63.6-1.28.91-1.93.59-1.3,1.23-2.6,1.81-3.95.55-1.36,1.1-2.73,1.66-4.12.57-1.38,1.01-2.83,1.53-4.26,1.97-5.77,3.61-11.9,4.77-18.29l.03.4c-.07-.8-.02-.22-.03-.4h0s0,0,0,0h0s0,.02,0,.02v.03s-.01.03-.02.04c0,.03-.01.04-.01.05,0,.02,0,0,0-.03,0-.02,0-.05.01-.08v-.03s0,0,0,0h0c0-.09.06.77.03.4h0s0-.01,0-.01l-.02-.05c-.03-.06-.07-.18-.1-.2,0,0-.02-.04-.02-.03,0,.02.02.03.04.04,0-.01.08.06.15.07.08,0,.14.02.22,0,.23-.08.06-.04-.03.16-.22.35-.47.95-.69,1.64-.91,2.82-1.8,7.45-2.48,13.25-.66,5.8-1.14,12.82-.81,20.49.18,3.83.56,7.82,1.46,11.8.46,1.98,1.05,3.96,1.9,5.81.85,1.84,1.96,3.6,3.49,4.8l-.08-.06c.06.02.67.36,1.77.96.27.15.58.32.91.51.34.16.73.32,1.14.5.41.18.85.37,1.32.57.46.21.99.33,1.53.52,2.15.74,4.91,1.26,8.05,1.1,3.14-.17,6.68-1.07,10.1-3.05,3.42-1.96,6.76-4.81,9.77-8.32,2.99-3.54,5.74-7.68,8.1-12.26,2.35-4.58,4.4-9.58,5.96-14.86,1.57-5.27,2.69-10.84,2.96-16.49l.1.5c-.14-.28-.29-.61-.48-.88-.05-.07-.09-.14-.14-.19-.05-.07-.09-.11-.12-.13-.04-.05-.03-.01,0-.01.05.03.18.05.29.02.22-.08.12-.09.03.08-.09.14-.2.36-.3.61-.2.5-.37,1.11-.53,1.77-.63,2.68-1.06,6.21-1.47,10.34-.8,8.27-1.4,19.03-2.08,31.51-.7,12.48-1.4,26.69-2.69,41.89-.67,7.6-1.44,15.44-2.84,23.42-.35,1.99-.76,3.99-1.26,5.99-.51,2-1.08,4.01-1.97,5.99-.46.99-.96,1.98-1.79,2.91-.42.46-.92.92-1.62,1.23-.69.32-1.57.38-2.29.18-.73-.19-1.3-.55-1.79-.94-.5-.38-.89-.81-1.27-1.24-.74-.86-1.34-1.77-1.89-2.7l-.12-.19-.02-.15c-.04-.29-.23-1.06-.21-2.22.04-1.15.36-2.67,1.14-4.16,1.51-3.03,4.56-5.87,7.64-8.3M1338.55,418.25c-2.17,1.75-4.46,3.68-6.34,6.15-.93,1.24-1.78,2.65-2.3,4.29-.53,1.62-.67,3.51-.27,5.25l.08.36.17.27c.85,1.38,1.72,2.76,3.23,4.07.76.62,1.81,1.33,3.32,1.41.75.04,1.5-.16,2.11-.45.61-.3,1.09-.68,1.48-1.06.78-.77,1.27-1.55,1.69-2.32.42-.76.75-1.52,1.05-2.27.58-1.5,1.03-3,1.42-4.48,1.51-5.94,2.3-11.84,3.02-17.72,1.37-11.75,2.14-23.41,2.85-34.96.65-11.54,1.3-22.97,1.95-34.3.35-5.65.72-11.27,1.27-16.81.28-2.76.59-5.52,1.06-8.16.24-1.28.53-2.66.92-3.55.08-.21.21-.37.11-.25-.04.02-.26.27-.7.33-.22.07-.5.01-.65-.01-.09-.02-.18-.05-.25-.1-.04-.01-.08-.03-.12-.06-.25-.18-.08-.07.01.1.11.18.23.42.36.68l-.19-.97c-.36,7.31-2.15,14.61-4.66,21.49-2.54,6.88-5.89,13.44-10.21,19.13-2.16,2.83-4.57,5.44-7.26,7.62-2.69,2.16-5.66,3.93-8.85,4.88-3.18.97-6.52,1.14-9.76.52-3.24-.6-6.35-1.96-9.24-3.7l.18.13c-1.65-1.31-2.88-3.47-3.75-5.78-.87-2.33-1.45-4.84-1.86-7.37-.81-5.09-1-10.31-.91-15.47.1-5.16.49-10.3,1.15-15.34.33-2.52.74-5.02,1.26-7.45.26-1.21.56-2.41.92-3.51.18-.53.4-1.08.57-1.37.02-.03.08-.11,0-.02,0-.02-.12.12-.27.19l-.12.05c-.08.04-.16.07-.25.09-.18.05-.35.04-.53.03-.19-.01-.39-.07-.55-.16l-.17-.1s-.08-.05-.11-.08c-.07-.05-.14-.14-.17-.19-.02-.01-.03-.03-.04-.05-.06-.13,0,.01,0,.02l-.08-.98c-2.87,15.71-8.55,30.56-16.83,43.09-4.15,6.25-9,11.89-14.51,16.55-5.5,4.66-11.69,8.29-18.23,10.59l.14-.04c-3.41.87-6.95.99-10.26.23-3.32-.73-6.36-2.4-8.77-4.68-2.42-2.28-4.2-5.17-5.23-8.29-1.03-3.12-1.32-6.44-1-9.68v-.08s0-.06,0-.06c.24-14.12,4.98-27.3,12.08-37.84,3.59-5.26,7.78-9.89,12.33-13.79,2.22-1.88,4.72-3.41,7.31-4.19,1.29-.38,2.6-.53,3.81-.34,1.21.19,2.3.71,3.18,1.56,1.82,1.68,2.72,4.22,2.57,6.66-.08,1.22-.39,2.42-.91,3.51-.5,1.03-1.34,2.17-2.04,3.3-2.92,4.47-5.63,8.83-8.19,13.03-5.12,8.4-9.67,16.11-13.98,22.92-8.58,13.64-16.03,23.72-21.15,30.49-2.6,3.36-4.35,6.13-6.04,7.45-1.66,1.37-2.87,1.43-2.82,1.56,0,.03.29.03.84-.1.55-.13,1.35-.44,2.26-1.1.91-.65,1.9-1.64,2.93-2.89,1.02-1.25,2.2-2.71,3.54-4.36,5.36-6.6,13.06-16.55,21.9-30.11,4.44-6.76,9.12-14.43,14.33-22.74,2.6-4.16,5.35-8.46,8.31-12.88.37-.55.74-1.11,1.11-1.66.36-.52.8-1.21,1.12-1.87.67-1.35,1.07-2.85,1.19-4.38.23-3.07-.86-6.36-3.26-8.62-1.17-1.16-2.79-1.98-4.47-2.24-1.68-.28-3.36-.07-4.91.36-3.11.9-5.85,2.59-8.32,4.62-4.78,4.02-9.18,8.79-12.95,14.23-7.47,10.9-12.53,24.58-12.89,39.37v-.14c-.38,3.63-.09,7.42,1.07,11.02,1.16,3.59,3.2,6.98,6.02,9.67,2.81,2.69,6.38,4.67,10.26,5.56,3.88.91,7.98.78,11.86-.19l.06-.02.07-.03c6.97-2.41,13.56-6.23,19.38-11.11,5.84-4.87,10.93-10.75,15.27-17.23,4.35-6.48,7.97-13.56,10.9-21.01,2.93-7.46,5.19-15.3,6.68-23.42l.1-.56-.18-.42c-.12-.28-.15-.45-.4-.84l-.17-.25c-.08-.1-.22-.24-.34-.35l-.2-.16c-.06-.05-.13-.1-.27-.16-.24-.12-.51-.2-.78-.23-.26-.03-.51,0-.77.05-.13.03-.25.07-.37.11-.1.04-.15.07-.22.11-.28.15-.55.38-.63.49-.3.31-.41.51-.57.74-.47.81-.69,1.46-.93,2.14-.44,1.32-.76,2.61-1.05,3.9-.57,2.58-.99,5.16-1.35,7.76-.7,5.2-1.12,10.46-1.24,15.79-.1,5.33.06,10.73.91,16.17.43,2.72,1.04,5.46,2.04,8.16,1.02,2.67,2.43,5.45,5.02,7.56l.08.07.1.06c3.21,1.96,6.77,3.54,10.62,4.27,3.84.75,7.93.55,11.71-.6,3.81-1.12,7.23-3.17,10.25-5.59,3.02-2.43,5.65-5.28,7.98-8.32,4.66-6.1,8.16-12.99,10.85-20.2,2.64-7.23,4.56-14.81,4.97-22.78l.03-.51-.22-.46c-.18-.37-.36-.75-.62-1.17-.28-.41-.53-.88-1.36-1.45-.11-.07-.23-.14-.34-.2-.16-.07-.33-.13-.5-.17-.31-.1-.78-.11-1.17-.05-.77.16-1.31.58-1.58.87-.58.62-.78,1.09-.98,1.52-.37.86-.57,1.6-.76,2.34-.18.74-.33,1.46-.46,2.18-.52,2.86-.83,5.68-1.12,8.5-.56,5.64-.94,11.29-1.3,16.96-.66,11.33-1.32,22.76-1.99,34.3-.72,11.51-1.5,23.13-2.86,34.71-.7,5.77-1.51,11.59-2.92,17.13-.36,1.38-.77,2.72-1.26,3.99-.48,1.22-1.11,2.48-1.71,3.05-.14.14-.26.22-.32.24-.03,0-.04.02-.04.01,0-.02,0,.02,0,.03,0-.04,0-.03,0-.03.01.01-.3-.07-.67-.39-.76-.64-1.57-1.78-2.26-2.93l.25.63c-.45-1.88.31-3.96,1.8-5.9,1.48-1.95,3.45-3.66,5.6-5.38,30.47-24.56,61.01-47.95,88.34-73.47,6.81-6.41,13.41-12.96,19.49-19.96,3.02-3.53,5.94-7.14,8.49-11.08,1.27-1.97,2.47-4.01,3.46-6.22.97-2.21,1.8-4.59,1.9-7.29.09-1.33-.15-2.78-.64-4.14-.51-1.38-1.44-2.57-2.46-3.55-1.07-.89-2.22-1.63-3.41-2.11l-.89-.37s-.06-.03-.12-.05l-.22-.06c-.14-.04-.3-.08-.43-.1-.21-.03-.45-.07-.64-.07-.77-.05-1.38,0-2,.05-1.23.11-2.39.31-3.57.57-.6.14-1.17.28-1.87.53-.17.06-.44.18-.57.24l-.38.19-.75.38c-2,1.02-4.01,1.99-5.96,3.09l-2.94,1.61-2.88,1.7c-1.93,1.1-3.78,2.36-5.65,3.54-3.67,2.5-7.27,5.08-10.64,7.95-6.69,5.73-12.81,12.29-16.83,20.23-1.97,3.96-3.45,8.24-3.85,12.73-.22,2.24-.12,4.51.21,6.75.38,2.24,1.09,4.41,2.08,6.45,2.03,4.06,5.32,7.45,9.19,9.6,3.85,2.23,8.19,3.26,12.45,3.56,8.58.44,16.79-2.16,23.86-6.03,3.55-1.94,6.86-4.21,9.97-6.67,3.09-2.48,5.94-5.18,8.64-7.97,5.32-5.66,9.91-11.78,13.92-18.09,8.01-12.65,13.72-25.98,18.33-39.03l-3.17-.06c.95,2.77,2.34,4.95,3.71,7.14,1.4,2.16,2.85,4.23,4.33,6.26,2.95,4.05,5.94,7.93,8.86,11.77,5.83,7.67,11.49,15.08,16.16,22.67,2.29,3.79,4.42,7.66,5.51,11.59.52,1.94.71,3.95.08,5.43-.31.73-.82,1.33-1.52,1.79-.7.46-1.55.77-2.43.97-3.74.71-7.73-.04-11.03-1.76-3.33-1.72-6.06-4.44-7.6-7.64l-.03-.06-.03-.05c-.78-1.28-.9-2.66-.12-3.7.75-1.06,2.18-1.71,3.64-1.84h.08s.06-.02.06-.02c15.41-3.18,29.41-5.27,41.51-7.72,12.11-2.38,22.32-5.1,30.41-7.92,8.1-2.81,14.03-5.71,17.95-7.77,1.94-1.07,3.37-1.97,4.34-2.55.96-.59,1.43-.92,1.41-.96-.03-.05-.56.18-1.57.68-1,.51-2.5,1.26-4.47,2.25-4,1.86-9.96,4.55-18.05,7.15-8.08,2.61-18.26,5.12-30.35,7.31-12.08,2.26-26.09,4.16-41.64,7.19l.14-.02c-1.95.17-4.07.95-5.43,2.8-.67.9-1.05,2.1-1,3.25.04,1.16.44,2.23.98,3.15l-.06-.11c1.77,3.75,4.87,6.87,8.64,8.88,3.77,2,8.27,2.93,12.79,2.12,1.16-.24,2.32-.64,3.4-1.33,1.08-.68,2.03-1.75,2.56-2.98.54-1.23.68-2.53.65-3.74-.04-1.22-.24-2.39-.53-3.51-.6-2.24-1.47-4.35-2.46-6.4-.99-2.05-2.1-4.04-3.28-6-4.73-7.83-10.38-15.33-16.16-23.05-2.9-3.86-5.86-7.75-8.74-11.77-1.44-2.01-2.85-4.04-4.18-6.13-1.3-2.07-2.6-4.26-3.29-6.36l-1.52-4.63-1.64,4.57c-4.62,12.85-10.32,25.92-18.19,38.21-3.94,6.13-8.42,12.04-13.57,17.47-2.61,2.67-5.35,5.24-8.31,7.59-2.97,2.32-6.11,4.46-9.45,6.26-6.64,3.61-14.22,5.91-21.82,5.49-3.76-.29-7.51-1.2-10.74-3.1-3.26-1.83-5.92-4.62-7.59-7.95-.8-1.68-1.39-3.48-1.7-5.35-.26-1.88-.36-3.8-.16-5.72.36-3.86,1.67-7.68,3.47-11.27,3.67-7.22,9.45-13.45,15.88-18.91,3.23-2.74,6.71-5.23,10.27-7.63,1.83-1.14,3.61-2.35,5.5-3.42l2.8-1.65,2.87-1.56c1.9-1.07,3.87-2.02,5.83-3.01l.73-.37.37-.18c.12-.05.11-.05.2-.08.35-.13.85-.26,1.34-.37.98-.22,2.03-.39,3.02-.48.49-.04.99-.07,1.34-.04.09,0,.13.02.19.02.02,0-.02,0-.02,0h-.01s.05,0,.07.02l.66.28c.89.36,1.62.87,2.28,1.39.57.58,1.07,1.19,1.34,1.93.25.75.43,1.55.35,2.47-.06,1.81-.69,3.79-1.55,5.7-.86,1.92-1.97,3.8-3.16,5.63-2.38,3.68-5.22,7.18-8.15,10.6-5.93,6.81-12.46,13.28-19.21,19.61-27.14,25.27-57.6,48.59-88.15,73.21Z" stroke="white" fill="none" stroke-width="3"/>
    </g>
  </g>
</svg>